####
#
# OBJ File Generated by Meshlab
#
####
# Object LeftFlappyFootOuterLink.obj
#
# Vertices: 121
# Faces: 250
#
####
mtllib ./LeftFlappyFootOuterLink.obj.mtl

vn 0.1829946 -0.7835806 0.5937293
v -0.0043208 0.0002500 -0.0146517
vn 0.5031505 -0.7671376 0.3979191
v -0.0118131 0.0002500 -0.0094765
vn 0.6276258 -0.7774931 0.0398799
v -0.0152458 0.0002500 -0.0009510
vn 0.5069769 -0.7779353 -0.3712021
v -0.0122903 0.0002500 0.0090714
vn 0.2552021 -0.7592634 -0.5986577
v -0.0061481 0.0002500 0.0137385
vn -0.0792013 -0.7838442 -0.6158859
v 0.0017109 0.0002500 0.0151794
vn -0.4527370 -0.7908417 -0.4118237
v 0.0110678 0.0002500 0.0105283
vn -0.5567145 -0.8224715 0.1166601
v 0.0155622 0.0002500 -0.0031937
vn -0.2748562 -0.7889212 0.5495975
v 0.0061081 0.0002500 -0.0140011
vn 0.4655688 -0.0108439 -0.8849453
v -0.0069006 0.0092722 0.0135406
vn 0.6773366 0.0039268 0.7356629
v -0.0107883 0.0092500 -0.0107883
vn 0.9670045 -0.0163287 0.2542356
v -0.0145201 0.0092500 -0.0038907
vn 0.9293580 0.0011408 -0.3691781
v -0.0144943 0.0092500 0.0052755
vn -0.8005673 0.0059978 0.5992129
v 0.0124978 0.0092500 -0.0087510
vn -0.0904874 -0.0005951 0.9958975
v 0.0013621 0.0092500 -0.0155686
vn -0.6484395 -0.0008916 -0.7612657
v 0.0097229 0.0092500 0.0115872
vn -0.9837425 0.0024277 -0.1795682
v 0.0151902 0.0092500 0.0026785
vn -0.1187958 0.0088639 -0.9928792
v 0.0018498 0.0092311 0.0150847
vn 0.2116936 0.7749582 0.5955045
v -0.0048648 0.0182500 -0.0143418
vn 0.5155196 0.7801908 0.3543189
v -0.0122903 0.0182500 -0.0090714
vn 0.5746520 0.8071166 -0.1354177
v -0.0152195 0.0182500 0.0036353
vn 0.3345032 0.7827836 -0.5247450
v -0.0078596 0.0182500 0.0129454
vn -0.0842721 0.7929239 -0.6034650
v 0.0022782 0.0182500 0.0152745
vn -0.4465618 0.7658920 -0.4625926
v 0.0104762 0.0182500 0.0108072
vn -0.5984305 0.7834759 -0.1674706
v 0.0146517 0.0182500 0.0043208
vn -0.5254655 0.8020836 0.2838095
v 0.0135742 0.0182500 -0.0073651
vn -0.2106727 0.7836186 0.5844305
v 0.0043208 0.0182500 -0.0146517
vn 0.3583843 -0.6318176 0.6872898
v 0.0321462 0.0002500 0.0084814
vn -0.3991485 -0.9163020 0.0327294
v -0.0348307 0.0002500 0.0143846
vn 0.4760331 -0.6278011 0.6158395
v 0.0390902 0.0002587 0.0045663
vn -0.2314838 -0.7258272 -0.6477578
v 0.0215298 0.0002500 -0.0307564
vn -0.3529407 -0.6953220 -0.6260673
v -0.0088467 0.0002500 -0.0157023
vn 0.1527464 -0.6847110 0.7126285
v 0.0037955 0.0002500 0.0176819
vn -0.3607794 -0.8453592 0.3939620
v -0.0377846 0.0002500 0.0089032
vn -0.5071167 -0.8138440 0.2837090
v -0.0497156 0.0002500 0.0158411
vn -0.3395779 -0.8802822 -0.3313460
v -0.0374810 0.0002500 0.0200078
vn -0.5240498 -0.7871065 -0.3253232
v -0.0477079 0.0002500 0.0090698
vn -0.5447552 -0.8157897 0.1942397
v -0.0458158 0.0002500 0.0209683
vn -0.0703380 -0.6707012 0.7383850
v -0.0418514 0.0002500 0.0226376
vn -0.3530045 0.6953630 -0.6259856
v -0.0088734 0.0182500 -0.0156861
vn 0.1520727 0.6849868 0.7125077
v 0.0037094 0.0182500 0.0176938
vn 0.2855699 0.6969547 0.6578024
v 0.0211196 0.0182479 0.0120640
vn -0.5884526 0.6530102 -0.4767611
v -0.0473976 0.0057500 0.0089381
vn -0.7811634 0.6046976 0.1553211
v -0.0498721 0.0057500 0.0157630
vn -0.2929212 0.6120043 0.7346073
v -0.0438321 0.0057500 0.0226756
vn 0.5582792 -0.7574685 -0.3384759
v -0.0477966 0.0022500 0.0179507
vn 0.3668814 -0.8433348 0.3926633
v -0.0462594 0.0014910 0.0098230
vn -0.2701030 -0.5088355 0.8173928
v -0.0388912 0.0022500 0.0079315
vn -0.8034824 -0.5792345 -0.1374901
v -0.0358237 0.0022500 0.0153982
vn -0.2434664 -0.5458981 -0.8016979
v -0.0393472 0.0022500 0.0210939
vn 0.2911417 -0.8114723 0.5067043
v -0.0440188 0.0022500 0.0105103
vn 0.4377397 -0.8646391 -0.2465426
v -0.0450313 0.0022500 0.0167147
vn -0.1524052 -0.8932160 -0.4230106
v -0.0398348 0.0022500 0.0188085
vn 0.4057115 0.8599241 -0.3097238
v -0.0447442 0.0057500 0.0171247
vn -0.1698928 0.8838841 -0.4357585
v -0.0401373 0.0057500 0.0187274
vn -0.3266009 0.9208447 0.2130184
v -0.0374109 0.0057500 0.0127869
vn 0.2767017 0.9140217 0.2966488
v -0.0447222 0.0057500 0.0111697
vn -0.1025389 0.1507144 0.9832451
v -0.0240542 0.0057500 0.0207144
vn -0.7352741 0.3562347 -0.5766011
v -0.0404008 0.0057500 0.0043678
vn -0.7369528 -0.3517527 -0.5772094
v -0.0404008 0.0147500 0.0043678
vn -0.1021163 -0.1508152 0.9832736
v -0.0240542 0.0147500 0.0207144
vn -0.0852907 0.6659901 0.7410687
v -0.0414360 0.0182500 0.0225967
vn -0.1281844 -0.6462524 0.7522810
v -0.0419094 0.0147500 0.0226281
vn -0.7332777 -0.5891888 0.3393528
v -0.0490355 0.0147500 0.0189885
vn -0.6400637 0.6010678 0.4785772
v -0.0484882 0.0182500 0.0198079
vn -0.6839895 0.6057622 -0.4064610
v -0.0481763 0.0182500 0.0093905
vn -0.6556457 -0.6415226 -0.3982180
v -0.0480161 0.0147500 0.0094601
vn 0.2639632 -0.8862957 -0.3805304
v -0.0439821 0.0147500 0.0183008
vn -0.4067571 -0.8932347 0.1915217
v -0.0372738 0.0147500 0.0128762
vn 0.2863971 -0.9131066 0.2901948
v -0.0445569 0.0147500 0.0111477
vn -0.2588871 -0.8714450 -0.4166067
v -0.0391014 0.0147500 0.0178392
vn -0.1623978 0.8907090 0.4245756
v -0.0399025 0.0182500 0.0104816
vn 0.4302637 0.8351732 0.3425769
v -0.0443280 0.0182500 0.0116103
vn 0.2414687 0.9367537 -0.2533485
v -0.0448006 0.0182500 0.0182477
vn -0.4481435 0.8741884 -0.1869813
v -0.0373916 0.0182500 0.0157942
vn -0.3922834 0.6764619 -0.6233082
v 0.0166107 0.0182500 -0.0283190
vn -0.0873808 0.9944149 0.0591910
v 0.0284958 0.0182500 -0.0043325
vn 0.3565583 0.4621977 0.8119357
v 0.0373363 0.0181435 0.0007041
vn -0.0969606 0.6754450 0.7310081
v 0.0368364 0.0194625 0.0002589
vn 0.1081774 0.8638575 0.4919837
v 0.0782629 0.0315380 -0.0377147
vn 0.5370377 0.3499993 0.7675227
v 0.0554754 0.0159650 -0.0111301
vn 0.5489029 -0.5317542 0.6449364
v 0.0890043 0.0140250 -0.0332036
vn -0.3695792 0.7180038 -0.5898151
v 0.0797114 0.0340000 -0.0595851
vn -0.0038271 0.6899226 0.7238731
v 0.0897215 0.0343008 -0.0432615
vn -0.2072245 -0.6869621 -0.6965207
v 0.0820665 0.0153600 -0.0607521
vn 0.0642435 -0.1661186 0.9840109
v 0.0975709 0.0160252 -0.0372364
vn -0.6440129 -0.5522175 -0.5294366
v 0.0909794 0.0166692 -0.0651687
vn -0.6360590 -0.0353499 -0.7708303
v 0.0868057 0.0256319 -0.0631021
vn -0.7283350 0.4736354 -0.4951743
v 0.0871212 0.0341619 -0.0622162
vn 0.9047791 0.1024258 0.4133807
v 0.1364356 0.0245225 -0.0555074
vn 0.6049323 0.7812844 0.1537911
v 0.1301156 0.0439576 -0.0626514
vn -0.5280925 -0.8490598 0.0146911
v 0.0912207 0.0119966 -0.0547842
vn 0.4416432 -0.8096651 -0.3865148
v 0.1264842 0.0119980 -0.0681369
vn 0.4920777 -0.5284156 0.6918356
v 0.1284842 0.0120106 -0.0465268
vn -0.3138526 0.8229424 -0.4735636
v 0.0996930 0.0440137 -0.0717425
vn -0.2841444 0.8003789 0.5278785
v 0.0925657 0.0439865 -0.0490078
vn 0.9019215 -0.2578146 -0.3465103
v 0.1342990 0.0215494 -0.0629799
vn 0.5845870 -0.8112915 0.0080064
v 0.1306962 0.0120091 -0.0552662
vn 0.9259824 0.2263991 -0.3021592
v 0.1336298 0.0338996 -0.0647191
vn 0.6055555 -0.3552755 -0.7120969
v 0.1265970 0.0180212 -0.0723035
vn 0.7069530 0.0907884 -0.7014093
v 0.1289077 0.0312141 -0.0729268
vn 0.5889100 0.4464836 -0.6736745
v 0.1270239 0.0381064 -0.0718493
vn 0.1739367 -0.3564814 -0.9179690
v 0.1153057 0.0192941 -0.0784622
vn 0.3923180 -0.0091248 -0.9197844
v 0.1212416 0.0276900 -0.0783950
vn 0.2819648 0.3766185 -0.8824140
v 0.1175635 0.0380814 -0.0771525
vn -0.0595058 0.0645551 -0.9961385
v 0.1094439 0.0301573 -0.0800177
vn -0.0829644 0.4050401 -0.9105271
v 0.1089138 0.0379152 -0.0780469
vn -0.0255141 -0.8091798 -0.5870070
v 0.1089246 0.0120870 -0.0750272
vn 0.1207542 0.8416409 -0.5263640
v 0.1149815 0.0440019 -0.0742026
vn -0.3595175 -0.2077935 -0.9097082
v 0.1007475 0.0221163 -0.0778444
vn -0.4175930 0.2935947 -0.8598944
v 0.1002451 0.0365053 -0.0763780
vn -0.6539523 -0.0420339 -0.7553672
v 0.0947282 0.0264384 -0.0744285
vn -0.6685799 -0.3888283 -0.6338876
v 0.0951920 0.0174811 -0.0717560
vn -0.3212782 -0.8284860 -0.4586843
v 0.0999457 0.0119943 -0.0718296
vn -0.7974415 0.0575138 -0.6006490
v 0.0902312 0.0300157 -0.0695345
vn -0.7089254 0.4181345 -0.5679687
v 0.0931848 0.0383406 -0.0698092
vn -0.5467042 0.8316940 -0.0969519
v 0.0914954 0.0439936 -0.0579533
vn -0.4814559 0.8738936 0.0671579
v 0.0860985 0.0342791 -0.0525521
vn 0.0106839 -0.5412724 0.8407795
v 0.1016837 0.0120091 -0.0368116
vn -0.8622609 0.1857047 0.4711900
v 0.0915466 0.0155909 -0.0451246
vn -0.3302070 -0.9410523 -0.0733762
v 0.0885925 0.0159168 -0.0560066
# 121 vertices, 0 vertices normals


usemtl material_0
f 15//15 11//11 1//1
f 11//11 12//12 2//2
f 12//12 13//13 3//3
f 13//13 10//10 4//4
f 10//10 18//18 6//6
f 18//18 16//16 6//6
f 16//16 17//17 7//7
f 17//17 14//14 8//8
f 14//14 15//15 9//9
f 1//1 9//9 15//15
f 9//9 8//8 14//14
f 8//8 7//7 17//17
f 7//7 6//6 16//16
f 6//6 5//5 10//10
f 5//5 4//4 10//10
f 4//4 3//3 13//13
f 3//3 2//2 12//12
f 2//2 1//1 11//11
f 27//27 19//19 15//15
f 19//19 20//20 11//11
f 20//20 21//21 12//12
f 21//21 22//22 13//13
f 22//22 23//23 10//10
f 23//23 24//24 16//16
f 24//24 25//25 16//16
f 25//25 26//26 17//17
f 26//26 27//27 14//14
f 15//15 14//14 27//27
f 14//14 17//17 26//26
f 17//17 16//16 25//25
f 16//16 18//18 23//23
f 18//18 10//10 23//23
f 10//10 13//13 22//22
f 13//13 12//12 21//21
f 12//12 11//11 20//20
f 11//11 15//15 19//19
f 34//34 3//3 29//29
f 28//28 33//33 7//7
f 30//30 28//28 8//8
f 5//5 29//29 4//4
f 2//2 32//32 1//1
f 3//3 34//34 2//2
f 7//7 8//8 28//28
f 30//30 8//8 31//31
f 1//1 31//31 9//9
f 4//4 29//29 3//3
f 32//32 2//2 34//34
f 33//33 29//29 6//6
f 8//8 9//9 31//31
f 32//32 31//31 1//1
f 5//5 6//6 29//29
f 37//37 32//32 34//34
f 36//36 39//39 38//38
f 6//6 7//7 33//33
f 33//33 39//39 36//36
f 29//29 33//33 36//36
f 41//41 33//33 42//42
f 28//28 42//42 33//33
f 43//43 37//37 44//44
f 44//44 35//35 45//45
f 39//39 45//45 38//38
f 38//38 45//45 35//35
f 35//35 44//44 37//37
f 38//38 35//35 46//46
f 35//35 37//37 46//46
f 47//47 37//37 48//48
f 37//37 34//34 48//48
f 34//34 29//29 48//48
f 29//29 36//36 49//49
f 36//36 38//38 50//50
f 50//50 49//49 36//36
f 49//49 48//48 29//29
f 47//47 46//46 37//37
f 46//46 50//50 38//38
f 51//51 48//48 49//49
f 46//46 47//47 51//51
f 50//50 46//46 53//53
f 50//50 53//53 49//49
f 47//47 48//48 51//51
f 51//51 52//52 46//46
f 52//52 53//53 46//46
f 57//57 54//54 52//52
f 54//54 55//55 53//53
f 55//55 56//56 53//53
f 56//56 57//57 51//51
f 51//51 49//49 56//56
f 49//49 53//53 56//56
f 53//53 52//52 54//54
f 52//52 51//51 57//57
f 59//59 56//56 58//58
f 56//56 55//55 58//58
f 44//44 45//45 54//54
f 45//45 58//58 55//55
f 55//55 54//54 45//45
f 44//44 57//57 43//43
f 57//57 56//56 59//59
f 54//54 57//57 44//44
f 59//59 43//43 57//57
f 61//61 60//60 58//58
f 59//59 58//58 60//60
f 41//41 62//62 61//61
f 33//33 41//41 58//58
f 61//61 58//58 41//41
f 45//45 39//39 58//58
f 33//33 58//58 39//39
f 63//63 61//61 62//62
f 32//32 37//37 59//59
f 60//60 40//40 59//59
f 32//32 59//59 40//40
f 67//67 66//66 60//60
f 40//40 60//60 66//66
f 43//43 59//59 37//37
f 63//63 65//65 64//64
f 64//64 66//66 67//67
f 66//66 64//64 65//65
f 65//65 63//63 62//62
f 60//60 61//61 69//69
f 70//70 60//60 69//69
f 64//64 67//67 70//70
f 68//68 64//64 70//70
f 64//64 68//68 63//63
f 60//60 70//70 67//67
f 68//68 71//71 63//63
f 71//71 69//69 61//61
f 63//63 71//71 61//61
f 72//72 73//73 70//70
f 73//73 74//74 70//70
f 74//74 75//75 71//71
f 75//75 72//72 69//69
f 70//70 69//69 72//72
f 69//69 71//71 75//75
f 71//71 68//68 74//74
f 68//68 70//70 74//74
f 40//40 72//72 20//20
f 20//20 72//72 21//21
f 20//20 19//19 40//40
f 77//77 76//76 26//26
f 76//76 40//40 19//19
f 27//27 26//26 76//76
f 24//24 77//77 25//25
f 24//24 23//23 41//41
f 75//75 41//41 22//22
f 65//65 62//62 74//74
f 72//72 75//75 21//21
f 27//27 76//76 19//19
f 77//77 24//24 41//41
f 23//23 22//22 41//41
f 74//74 62//62 75//75
f 65//65 74//74 66//66
f 73//73 66//66 74//74
f 26//26 25//25 77//77
f 22//22 21//21 75//75
f 41//41 75//75 62//62
f 40//40 66//66 72//72
f 78//78 77//77 42//42
f 73//73 72//72 66//66
f 41//41 42//42 77//77
f 78//78 79//79 77//77
f 81//81 79//79 78//78
f 82//82 80//80 81//81
f 81//81 30//30 82//82
f 78//78 30//30 81//81
f 30//30 78//78 28//28
f 42//42 28//28 78//78
f 79//79 81//81 80//80
f 80//80 76//76 79//79
f 83//83 76//76 80//80
f 84//84 83//83 80//80
f 76//76 77//77 79//79
f 31//31 85//85 82//82
f 82//82 30//30 31//31
f 86//86 82//82 85//85
f 120//120 85//85 121//121
f 85//85 120//120 86//86
f 87//87 121//121 85//85
f 31//31 76//76 88//88
f 31//31 88//88 85//85
f 76//76 83//83 88//88
f 87//87 85//85 88//88
f 31//31 32//32 76//76
f 83//83 89//89 88//88
f 40//40 76//76 32//32
f 84//84 118//118 83//83
f 118//118 89//89 83//83
f 119//119 94//94 84//84
f 91//91 96//96 90//90
f 90//90 84//84 94//94
f 84//84 90//90 96//96
f 86//86 84//84 82//82
f 86//86 119//119 84//84
f 80//80 82//82 84//84
f 97//97 99//99 90//90
f 90//90 98//98 97//97
f 98//98 93//93 97//97
f 101//101 102//102 99//99
f 100//100 103//103 104//104
f 101//101 105//105 102//102
f 93//93 108//108 103//103
f 104//104 106//106 105//105
f 105//105 107//107 109//109
f 103//103 110//110 106//106
f 106//106 111//111 107//107
f 107//107 111//111 95//95
f 114//114 113//113 110//110
f 110//110 112//112 111//111
f 110//110 113//113 112//112
f 114//114 87//87 113//113
f 113//113 88//88 112//112
f 117//117 89//89 118//118
f 119//119 120//120 92//92
f 91//91 102//102 109//109
f 116//116 95//95 111//111
f 116//116 117//117 95//95
f 84//84 96//96 118//118
f 87//87 92//92 121//121
f 120//120 119//119 86//86
f 120//120 121//121 92//92
f 88//88 89//89 115//115
f 96//96 117//117 118//118
f 105//105 109//109 102//102
f 90//90 94//94 98//98
f 114//114 92//92 87//87
f 117//117 116//116 89//89
f 89//89 116//116 115//115
f 115//115 112//112 88//88
f 88//88 113//113 87//87
f 115//115 116//116 112//112
f 116//116 111//111 112//112
f 111//111 106//106 110//110
f 110//110 108//108 114//114
f 95//95 109//109 107//107
f 110//110 103//103 108//108
f 107//107 105//105 106//106
f 106//106 104//104 103//103
f 105//105 101//101 104//104
f 103//103 100//100 93//93
f 104//104 101//101 100//100
f 91//91 99//99 102//102
f 101//101 97//97 100//100
f 100//100 97//97 93//93
f 101//101 99//99 97//97
f 91//91 90//90 99//99
f 117//117 109//109 95//95
f 91//91 109//109 117//117
f 96//96 91//91 117//117
f 92//92 114//114 119//119
f 94//94 119//119 98//98
f 93//93 98//98 119//119
f 108//108 93//93 119//119
f 114//114 108//108 119//119
# 250 faces, 0 coords texture

# End of File
