####
#
# OBJ File Generated by Meshlab
#
####
# Object RightFlappyFootInnerLink.obj
#
# Vertices: 121
# Faces: 250
#
####
mtllib ./RightFlappyFootInnerLink.obj.mtl

vn 0.2115104 0.7160301 0.6652550
v -0.0043208 -0.0002500 -0.0146517
vn 0.5756147 0.7103130 0.4051213
v -0.0118131 -0.0002500 -0.0094765
vn 0.7016485 0.7121902 0.0217856
v -0.0152458 -0.0002500 -0.0009510
vn 0.6574370 0.5617034 -0.5022609
v -0.0122903 -0.0002500 0.0090714
vn 0.2833127 0.7122718 -0.6421860
v -0.0061481 -0.0002500 0.0137385
vn -0.1026474 0.6166663 -0.7805039
v 0.0017109 -0.0002500 0.0151794
vn -0.5553601 0.7125760 -0.4287315
v 0.0110678 -0.0002500 0.0105283
vn -0.5584449 0.8207679 0.1203303
v 0.0155622 -0.0002500 -0.0031937
vn -0.3937249 0.5464764 0.7391511
v 0.0061081 -0.0002500 -0.0140011
vn 0.4217825 0.0127520 -0.9066074
v -0.0069006 -0.0092722 0.0135406
vn 0.6335131 -0.0020491 0.7737293
v -0.0107883 -0.0092500 -0.0107883
vn 0.9646671 0.0069414 0.2633805
v -0.0145201 -0.0092500 -0.0038907
vn 0.9174033 0.0012314 -0.3979570
v -0.0144943 -0.0092500 0.0052755
vn -0.7699651 0.0080677 0.6380350
v 0.0124978 -0.0092500 -0.0087510
vn -0.0615295 0.0042609 0.9980962
v 0.0013621 -0.0092500 -0.0155686
vn -0.6363386 -0.0059691 -0.7713867
v 0.0097229 -0.0092500 0.0115872
vn -0.9896181 0.0073710 -0.1435334
v 0.0151902 -0.0092500 0.0026785
vn -0.1213650 -0.0090320 -0.9925669
v 0.0018498 -0.0092311 0.0150847
vn 0.2354323 -0.7137569 0.6596383
v -0.0048648 -0.0182500 -0.0143418
vn 0.5969808 -0.7105752 0.3724204
v -0.0122903 -0.0182500 -0.0090714
vn 0.6822251 -0.7244058 -0.0990212
v -0.0152195 -0.0182500 0.0036353
vn 0.4246272 -0.7169917 -0.5528243
v -0.0078596 -0.0182500 0.0129454
vn -0.1140407 -0.4628934 -0.8790475
v 0.0022782 -0.0182500 0.0152745
vn -0.3704063 -0.8390701 -0.3984478
v 0.0104762 -0.0182500 0.0108072
vn -0.7711994 -0.5720906 -0.2792200
v 0.0146517 -0.0182500 0.0043208
vn -0.6329018 -0.7252814 0.2709284
v 0.0135742 -0.0182500 -0.0073651
vn -0.3211690 -0.5597193 0.7639142
v 0.0043208 -0.0182500 -0.0146517
vn 0.3458056 0.6612046 0.6657529
v 0.0321462 -0.0002500 0.0084814
vn -0.3360355 0.9405956 0.0485794
v -0.0348307 -0.0002500 0.0143846
vn 0.4746773 0.6120068 0.6325576
v 0.0390902 -0.0002587 0.0045663
vn -0.1407659 0.8910978 -0.4314276
v 0.0215298 -0.0002500 -0.0307564
vn -0.3468654 0.7082003 -0.6149282
v -0.0088467 -0.0002500 -0.0157023
vn 0.1302635 0.7825387 0.6088224
v 0.0037955 -0.0002500 0.0176819
vn -0.2030603 0.9223768 0.3286148
v -0.0377846 -0.0002500 0.0089032
vn -0.7386546 0.5626263 0.3712694
v -0.0497156 -0.0002500 0.0158411
vn -0.4225003 0.7951353 -0.4350327
v -0.0374810 -0.0002500 0.0200078
vn -0.4767250 0.8714954 -0.1150180
v -0.0477079 -0.0002500 0.0090698
vn -0.1531601 0.9095729 -0.3862889
v -0.0458158 -0.0002500 0.0209683
vn -0.0493389 0.5888854 0.8067091
v -0.0418514 -0.0002500 0.0226376
vn -0.3628598 -0.7088107 -0.6049133
v -0.0088734 -0.0182500 -0.0156861
vn 0.0877536 -0.8331307 0.5460702
v 0.0037094 -0.0182500 0.0176938
vn 0.3234489 -0.5939510 0.7366159
v 0.0211196 -0.0182479 0.0120640
vn -0.5313654 -0.7350602 -0.4211143
v -0.0473976 -0.0057500 0.0089381
vn -0.6618896 -0.7495552 0.0083133
v -0.0498721 -0.0057500 0.0157630
vn -0.3884313 -0.6304154 0.6720845
v -0.0438321 -0.0057500 0.0226756
vn 0.3628696 0.9256915 -0.1068690
v -0.0477966 -0.0022500 0.0179507
vn 0.3374718 0.8701567 0.3590823
v -0.0462594 -0.0014910 0.0098230
vn -0.2810005 0.7048700 0.6513041
v -0.0388912 -0.0022500 0.0079315
vn -0.6927121 0.7176794 -0.0713183
v -0.0358237 -0.0022500 0.0153982
vn -0.1786974 0.7963961 -0.5777721
v -0.0393472 -0.0022500 0.0210939
vn 0.1740285 0.8117880 0.5574176
v -0.0440188 -0.0022500 0.0105103
vn 0.7620469 0.5981651 -0.2479577
v -0.0450313 -0.0022500 0.0167147
vn -0.1479783 0.7788280 -0.6095322
v -0.0398348 -0.0022500 0.0188085
vn 0.4329861 -0.7656229 -0.4757571
v -0.0447442 -0.0057500 0.0171247
vn -0.1763131 -0.8922315 -0.4157362
v -0.0401373 -0.0057500 0.0187274
vn -0.6350901 -0.7372972 0.2303335
v -0.0374109 -0.0057500 0.0127869
vn 0.4009749 -0.8801615 0.2540373
v -0.0447222 -0.0057500 0.0111697
vn -0.1583009 -0.4833828 0.8609773
v -0.0240542 -0.0057500 0.0207144
vn -0.5810264 -0.6092526 -0.5396476
v -0.0404008 -0.0057500 0.0043678
vn -0.6867767 0.6829425 -0.2488520
v -0.0404008 -0.0147500 0.0043678
vn -0.0805320 0.6293147 0.7729667
v -0.0240542 -0.0147500 0.0207144
vn -0.0361093 -0.7226922 0.6902261
v -0.0414360 -0.0182500 0.0225967
vn -0.1681786 0.7292065 0.6633053
v -0.0419094 -0.0147500 0.0226281
vn -0.6153351 0.7652710 0.1890053
v -0.0490355 -0.0147500 0.0189885
vn -0.5498604 -0.6348311 0.5428104
v -0.0484882 -0.0182500 0.0198079
vn -0.5665764 -0.7534639 -0.3335917
v -0.0481763 -0.0182500 0.0093905
vn -0.5601929 0.7558720 -0.3388827
v -0.0480161 -0.0147500 0.0094601
vn 0.2797985 0.8969545 -0.3423238
v -0.0439821 -0.0147500 0.0183008
vn -0.5692316 0.7758302 0.2721450
v -0.0372738 -0.0147500 0.0128762
vn 0.4485630 0.7948692 0.4086247
v -0.0445569 -0.0147500 0.0111477
vn -0.3182374 0.7768662 -0.5433268
v -0.0391014 -0.0147500 0.0178392
vn -0.1470982 -0.9014295 0.4071696
v -0.0399025 -0.0182500 0.0104816
vn 0.5157105 -0.7418750 0.4285606
v -0.0443280 -0.0182500 0.0116103
vn 0.3528665 -0.8358099 -0.4206032
v -0.0448006 -0.0182500 0.0182477
vn -0.4068841 -0.8988768 -0.1626829
v -0.0373916 -0.0182500 0.0157942
vn -0.2943238 -0.8631415 -0.4103172
v 0.0166107 -0.0182500 -0.0283190
vn -0.0942549 -0.9864154 0.1345385
v 0.0284958 -0.0182500 -0.0043325
vn 0.3351507 -0.4487122 0.8284512
v 0.0373363 -0.0181435 0.0007041
vn 0.0435527 -0.7630811 0.6448336
v 0.0368364 -0.0194625 0.0002589
vn 0.1497564 -0.8473967 0.5094033
v 0.0782629 -0.0315380 -0.0377147
vn 0.5329786 -0.3742430 0.7588650
v 0.0554754 -0.0159650 -0.0111301
vn 0.5674185 0.3485550 0.7460199
v 0.0890043 -0.0140250 -0.0332036
vn -0.2772030 -0.8918617 -0.3574090
v 0.0797114 -0.0340000 -0.0595851
vn 0.1039037 -0.6568357 0.7468407
v 0.0897215 -0.0343008 -0.0432615
vn -0.1392512 0.8266053 -0.5452824
v 0.0820665 -0.0153600 -0.0607521
vn -0.0272639 -0.0992587 0.9946881
v 0.0975709 -0.0160252 -0.0372364
vn -0.6177222 0.6098906 -0.4964402
v 0.0909794 -0.0166692 -0.0651687
vn -0.6304598 0.0571061 -0.7741184
v 0.0868057 -0.0256319 -0.0631021
vn -0.7468248 -0.4772556 -0.4631196
v 0.0871212 -0.0341619 -0.0622162
vn 0.8742020 -0.1439415 0.4637367
v 0.1364356 -0.0245225 -0.0555074
vn 0.5476380 -0.8357163 -0.0408766
v 0.1301156 -0.0439576 -0.0626514
vn -0.6069712 0.7946827 -0.0080794
v 0.0912207 -0.0119966 -0.0547842
vn 0.4344684 0.7839282 -0.4435019
v 0.1264842 -0.0119980 -0.0681369
vn 0.5987347 0.2273360 0.7680072
v 0.1284842 -0.0120106 -0.0465268
vn -0.3582853 -0.7056853 -0.6112610
v 0.0996930 -0.0440137 -0.0717425
vn -0.2881742 -0.7607523 0.5815596
v 0.0925657 -0.0439865 -0.0490078
vn 0.8863167 0.2561135 -0.3858092
v 0.1342990 -0.0215494 -0.0629799
vn 0.6145154 0.7882861 -0.0312399
v 0.1306962 -0.0120091 -0.0552662
vn 0.9051760 -0.2060521 -0.3717512
v 0.1336298 -0.0338996 -0.0647191
vn 0.6167373 0.3128572 -0.7223265
v 0.1265970 -0.0180212 -0.0723035
vn 0.6975967 -0.0861624 -0.7112910
v 0.1289077 -0.0312141 -0.0729268
vn 0.5986758 -0.4473191 -0.6644493
v 0.1270239 -0.0381064 -0.0718493
vn 0.1764103 0.3573695 -0.9171513
v 0.1153057 -0.0192941 -0.0784622
vn 0.3794132 0.0157207 -0.9250938
v 0.1212416 -0.0276900 -0.0783950
vn 0.2915924 -0.3379193 -0.8948656
v 0.1175635 -0.0380814 -0.0771525
vn -0.0388933 -0.0824572 -0.9958354
v 0.1094439 -0.0301573 -0.0800177
vn -0.0838636 -0.4228645 -0.9023041
v 0.1089138 -0.0379152 -0.0780469
vn -0.0246863 0.8069462 -0.5901089
v 0.1089246 -0.0120870 -0.0750272
vn 0.1538772 -0.8140597 -0.5600256
v 0.1149815 -0.0440019 -0.0742026
vn -0.3495588 0.2257889 -0.9093009
v 0.1007475 -0.0221163 -0.0778444
vn -0.4170607 -0.2560821 -0.8720564
v 0.1002451 -0.0365053 -0.0763780
vn -0.6772002 0.0344272 -0.7349930
v 0.0947282 -0.0264384 -0.0744285
vn -0.6868476 0.3470572 -0.6385857
v 0.0951920 -0.0174811 -0.0717560
vn -0.3904525 0.7981851 -0.4587455
v 0.0999457 -0.0119943 -0.0718296
vn -0.8124108 -0.0871422 -0.5765371
v 0.0902312 -0.0300157 -0.0695345
vn -0.7083580 -0.3817594 -0.5937076
v 0.0931848 -0.0383406 -0.0698092
vn -0.5262427 -0.8414840 -0.1223659
v 0.0914954 -0.0439936 -0.0579533
vn -0.6160481 -0.7838498 0.0778738
v 0.0860985 -0.0342791 -0.0525521
vn -0.0853950 0.9066172 0.4132228
v 0.1016837 -0.0120091 -0.0368116
vn -0.6931586 0.6231900 0.3621674
v 0.0915466 -0.0155909 -0.0451246
vn -0.4034614 0.9139007 -0.0447710
v 0.0885925 -0.0159168 -0.0560066
# 121 vertices, 0 vertices normals


usemtl material_0
f 11//11 15//15 1//1
f 12//12 11//11 2//2
f 13//13 12//12 3//3
f 10//10 13//13 4//4
f 18//18 10//10 6//6
f 16//16 18//18 6//6
f 17//17 16//16 7//7
f 14//14 17//17 8//8
f 15//15 14//14 9//9
f 9//9 1//1 15//15
f 8//8 9//9 14//14
f 7//7 8//8 17//17
f 6//6 7//7 16//16
f 5//5 6//6 10//10
f 4//4 5//5 10//10
f 3//3 4//4 13//13
f 2//2 3//3 12//12
f 1//1 2//2 11//11
f 19//19 27//27 15//15
f 20//20 19//19 11//11
f 21//21 20//20 12//12
f 22//22 21//21 13//13
f 23//23 22//22 10//10
f 24//24 23//23 16//16
f 25//25 24//24 16//16
f 26//26 25//25 17//17
f 27//27 26//26 14//14
f 14//14 15//15 27//27
f 17//17 14//14 26//26
f 16//16 17//17 25//25
f 18//18 16//16 23//23
f 10//10 18//18 23//23
f 13//13 10//10 22//22
f 12//12 13//13 21//21
f 11//11 12//12 20//20
f 15//15 11//11 19//19
f 3//3 34//34 29//29
f 33//33 28//28 7//7
f 28//28 30//30 8//8
f 29//29 5//5 4//4
f 32//32 2//2 1//1
f 34//34 3//3 2//2
f 8//8 7//7 28//28
f 8//8 30//30 31//31
f 31//31 1//1 9//9
f 29//29 4//4 3//3
f 2//2 32//32 34//34
f 29//29 33//33 6//6
f 9//9 8//8 31//31
f 31//31 32//32 1//1
f 6//6 5//5 29//29
f 32//32 37//37 34//34
f 39//39 36//36 38//38
f 7//7 6//6 33//33
f 39//39 33//33 36//36
f 33//33 29//29 36//36
f 33//33 41//41 42//42
f 42//42 28//28 33//33
f 37//37 43//43 44//44
f 35//35 44//44 45//45
f 45//45 39//39 38//38
f 45//45 38//38 35//35
f 44//44 35//35 37//37
f 35//35 38//38 46//46
f 37//37 35//35 46//46
f 37//37 47//47 48//48
f 34//34 37//37 48//48
f 29//29 34//34 48//48
f 36//36 29//29 49//49
f 38//38 36//36 50//50
f 49//49 50//50 36//36
f 48//48 49//49 29//29
f 46//46 47//47 37//37
f 50//50 46//46 38//38
f 48//48 51//51 49//49
f 47//47 46//46 51//51
f 46//46 50//50 53//53
f 53//53 50//50 49//49
f 48//48 47//47 51//51
f 52//52 51//51 46//46
f 53//53 52//52 46//46
f 54//54 57//57 52//52
f 55//55 54//54 53//53
f 56//56 55//55 53//53
f 57//57 56//56 51//51
f 49//49 51//51 56//56
f 53//53 49//49 56//56
f 52//52 53//53 54//54
f 51//51 52//52 57//57
f 56//56 59//59 58//58
f 55//55 56//56 58//58
f 45//45 44//44 54//54
f 58//58 45//45 55//55
f 54//54 55//55 45//45
f 57//57 44//44 43//43
f 56//56 57//57 59//59
f 57//57 54//54 44//44
f 43//43 59//59 57//57
f 60//60 61//61 58//58
f 58//58 59//59 60//60
f 62//62 41//41 61//61
f 41//41 33//33 58//58
f 58//58 61//61 41//41
f 39//39 45//45 58//58
f 58//58 33//33 39//39
f 61//61 63//63 62//62
f 37//37 32//32 59//59
f 40//40 60//60 59//59
f 59//59 32//32 40//40
f 66//66 67//67 60//60
f 60//60 40//40 66//66
f 59//59 43//43 37//37
f 65//65 63//63 64//64
f 66//66 64//64 67//67
f 64//64 66//66 65//65
f 63//63 65//65 62//62
f 61//61 60//60 69//69
f 60//60 70//70 69//69
f 67//67 64//64 70//70
f 64//64 68//68 70//70
f 68//68 64//64 63//63
f 70//70 60//60 67//67
f 71//71 68//68 63//63
f 69//69 71//71 61//61
f 71//71 63//63 61//61
f 73//73 72//72 70//70
f 74//74 73//73 70//70
f 75//75 74//74 71//71
f 72//72 75//75 69//69
f 69//69 70//70 72//72
f 71//71 69//69 75//75
f 68//68 71//71 74//74
f 70//70 68//68 74//74
f 72//72 40//40 20//20
f 72//72 20//20 21//21
f 19//19 20//20 40//40
f 76//76 77//77 26//26
f 40//40 76//76 19//19
f 26//26 27//27 76//76
f 77//77 24//24 25//25
f 23//23 24//24 41//41
f 41//41 75//75 22//22
f 62//62 65//65 74//74
f 75//75 72//72 21//21
f 76//76 27//27 19//19
f 24//24 77//77 41//41
f 22//22 23//23 41//41
f 62//62 74//74 75//75
f 74//74 65//65 66//66
f 66//66 73//73 74//74
f 25//25 26//26 77//77
f 21//21 22//22 75//75
f 75//75 41//41 62//62
f 66//66 40//40 72//72
f 77//77 78//78 42//42
f 72//72 73//73 66//66
f 42//42 41//41 77//77
f 79//79 78//78 77//77
f 79//79 81//81 78//78
f 80//80 82//82 81//81
f 30//30 81//81 82//82
f 30//30 78//78 81//81
f 78//78 30//30 28//28
f 28//28 42//42 78//78
f 81//81 79//79 80//80
f 76//76 80//80 79//79
f 76//76 83//83 80//80
f 83//83 84//84 80//80
f 77//77 76//76 79//79
f 85//85 31//31 82//82
f 30//30 82//82 31//31
f 82//82 86//86 85//85
f 85//85 120//120 121//121
f 120//120 85//85 86//86
f 121//121 87//87 85//85
f 76//76 31//31 88//88
f 88//88 31//31 85//85
f 83//83 76//76 88//88
f 85//85 87//87 88//88
f 32//32 31//31 76//76
f 89//89 83//83 88//88
f 76//76 40//40 32//32
f 118//118 84//84 83//83
f 89//89 118//118 83//83
f 94//94 119//119 84//84
f 96//96 91//91 90//90
f 84//84 90//90 94//94
f 90//90 84//84 96//96
f 84//84 86//86 82//82
f 119//119 86//86 84//84
f 82//82 80//80 84//84
f 99//99 97//97 90//90
f 98//98 90//90 97//97
f 93//93 98//98 97//97
f 102//102 101//101 99//99
f 103//103 100//100 104//104
f 105//105 101//101 102//102
f 108//108 93//93 103//103
f 106//106 104//104 105//105
f 107//107 105//105 109//109
f 110//110 103//103 106//106
f 111//111 106//106 107//107
f 111//111 107//107 95//95
f 113//113 114//114 110//110
f 112//112 110//110 111//111
f 113//113 110//110 112//112
f 87//87 114//114 113//113
f 88//88 113//113 112//112
f 89//89 117//117 118//118
f 120//120 119//119 92//92
f 102//102 91//91 109//109
f 95//95 116//116 111//111
f 117//117 116//116 95//95
f 96//96 84//84 118//118
f 92//92 87//87 121//121
f 119//119 120//120 86//86
f 121//121 120//120 92//92
f 89//89 88//88 115//115
f 117//117 96//96 118//118
f 109//109 105//105 102//102
f 94//94 90//90 98//98
f 92//92 114//114 87//87
f 116//116 117//117 89//89
f 116//116 89//89 115//115
f 112//112 115//115 88//88
f 113//113 88//88 87//87
f 116//116 115//115 112//112
f 111//111 116//116 112//112
f 106//106 111//111 110//110
f 108//108 110//110 114//114
f 109//109 95//95 107//107
f 103//103 110//110 108//108
f 105//105 107//107 106//106
f 104//104 106//106 103//103
f 101//101 105//105 104//104
f 100//100 103//103 93//93
f 101//101 104//104 100//100
f 99//99 91//91 102//102
f 97//97 101//101 100//100
f 97//97 100//100 93//93
f 99//99 101//101 97//97
f 90//90 91//91 99//99
f 109//109 117//117 95//95
f 109//109 91//91 117//117
f 91//91 96//96 117//117
f 114//114 92//92 119//119
f 119//119 94//94 98//98
f 98//98 93//93 119//119
f 93//93 108//108 119//119
f 108//108 114//114 119//119
# 250 faces, 0 coords texture

# End of File
