####
#
# OBJ File Generated by Meshlab
#
####
# Object RightFlappyFootInnerLink.obj
#
# Vertices: 196
# Faces: 400
#
####
mtllib ./RightFlappyFootInnerLink.obj.mtl

vn 0.9382929 -0.3242387 -0.1203148
v 0.0059171 -0.0145662 -0.0445950
vn -0.7800906 -0.6189681 -0.0913081
v -0.0581586 -0.0205110 -0.0530391
vn 0.1464417 -0.9810568 -0.1268168
v -0.0229502 -0.0329906 -0.0574651
vn -0.2260050 -0.9740376 -0.0131339
v -0.0383599 -0.0322507 -0.0512357
vn -0.6184414 0.7756784 -0.1259096
v -0.0529141 0.0175038 -0.0544746
vn 0.2859616 0.9482011 -0.1383498
v -0.0190850 0.0240953 -0.0563452
vn 0.4573889 0.3090245 -0.8338461
v 0.0016204 0.0107996 -0.0530155
vn -0.2568730 0.2732248 -0.9270191
v -0.0386317 0.0085127 -0.0799194
vn -0.3031705 0.7461148 -0.5927903
v -0.0376591 0.0184135 -0.0736049
vn -0.6053721 0.1146128 -0.7876475
v -0.0537062 -0.0009188 -0.0748347
vn 0.4712358 0.6702287 -0.5733501
v -0.0146191 0.0151290 -0.0738134
vn 0.1139962 0.4265223 -0.8972645
v -0.0245096 0.0137754 -0.0797231
vn 0.6774089 0.0262008 -0.7351400
v -0.0026439 -0.0034587 -0.0737872
vn 0.5558976 0.3737141 -0.7425063
v -0.0087279 0.0064345 -0.0754159
vn 0.3347569 0.0527012 -0.9408297
v -0.0119674 -0.0007892 -0.0789852
vn 0.4596173 -0.4526766 -0.7640916
v -0.0124021 -0.0176580 -0.0763710
vn 0.1853555 -0.2756914 -0.9432061
v -0.0207709 -0.0170975 -0.0798986
vn 0.0208907 -0.7036704 -0.7102193
v -0.0289707 -0.0263330 -0.0763141
vn -0.3528511 -0.5612378 -0.7486709
v -0.0392994 -0.0196392 -0.0784713
vn -0.5320778 -0.3058608 -0.7895204
v -0.0503727 -0.0128850 -0.0755984
vn -0.2023180 -0.2280734 -0.9523917
v -0.0385996 -0.0170600 -0.0800134
vn 0.6694369 -0.7250444 -0.1617560
v -0.0028494 -0.0234628 -0.0534439
vn 0.9810801 -0.0850929 -0.1738993
v 0.0058705 -0.0057530 -0.0570422
vn 0.8534204 -0.4219297 -0.3060210
v 0.0032192 -0.0136240 -0.0596014
vn 0.4194408 -0.9006102 -0.1138890
v -0.0121977 -0.0294829 -0.0534993
vn 0.5512298 -0.7301949 -0.4036845
v -0.0081813 -0.0243054 -0.0653189
vn -0.4553947 -0.8756725 -0.1606654
v -0.0466640 -0.0288944 -0.0572260
vn -0.9569660 -0.2701997 -0.1058694
v -0.0634978 -0.0097550 -0.0540875
vn -0.6472965 -0.6539664 -0.3915805
v -0.0538268 -0.0214131 -0.0643388
vn 0.1981357 -0.9007915 -0.3864156
v -0.0236011 -0.0305613 -0.0672927
vn -0.2622404 -0.8784254 -0.3994982
v -0.0361356 -0.0295586 -0.0684289
vn 0.7421486 -0.3346477 -0.5807119
v -0.0011797 -0.0114518 -0.0701061
vn -0.7906185 -0.3346951 -0.5127394
v -0.0579117 -0.0123486 -0.0685355
vn -0.8862329 0.4502811 -0.1088035
v -0.0618243 0.0066393 -0.0538643
vn -0.9216600 0.1106608 -0.3718832
v -0.0625520 -0.0014485 -0.0630294
vn -0.6655909 0.5252554 -0.5301843
v -0.0543006 0.0093890 -0.0691373
vn -0.3774765 0.8861055 -0.2689400
v -0.0427827 0.0216881 -0.0617342
vn 0.0206443 0.9843000 -0.1752925
v -0.0270688 0.0249324 -0.0598444
vn 0.3988008 0.8649639 -0.3046233
v -0.0057471 0.0181895 -0.0533481
vn 0.8031529 0.4401129 -0.4015545
v 0.0017023 0.0055351 -0.0641595
vn 0.9287092 0.0769881 -0.3627288
v 0.0046802 -0.0021799 -0.0625102
vn 0.0803474 0.8549244 -0.5124925
v -0.0265437 0.0205271 -0.0731485
vn 0.8656871 -0.1729689 -0.4697526
v 0.0058580 0.0002361 -0.0529384
vn 0.5182315 -0.8189875 0.2463651
v 0.0060000 0.0002500 -0.0279496
vn 0.3714177 -0.7307711 0.5727325
v -0.0063996 0.0002500 -0.0179697
vn 0.3068469 -0.0496345 0.9504638
v -0.0102470 -0.0182500 -0.0160000
vn 0.2165143 -0.6121591 0.7605149
v -0.0103332 -0.0270561 -0.0160079
vn 0.2604136 -0.7264912 0.6359209
v -0.0102470 0.0002500 -0.0160000
vn -0.6633527 -0.0821451 0.7437845
v -0.0575476 -0.0074171 -0.0160019
vn -0.6152579 0.2735650 0.7393375
v -0.0558408 0.0052406 -0.0159999
vn -0.3019029 -0.3015052 0.9044055
v -0.0495205 -0.0182500 -0.0160000
vn -0.2335054 -0.6244814 0.7453176
v -0.0402691 -0.0262713 -0.0160000
vn -0.3938502 -0.5549818 0.7327190
v -0.0471197 -0.0230033 -0.0160000
vn -0.0516930 -0.6630891 0.7467535
v -0.0322854 -0.0280959 -0.0159993
vn -0.5753126 -0.3500166 0.7392590
v -0.0550402 -0.0144660 -0.0160021
vn -0.8661299 -0.3846832 0.3191206
v -0.0495205 0.0002500 -0.0036449
vn -0.4889090 -0.5629935 0.6663380
v -0.0495205 -0.0182500 -0.0036449
vn 0.1945537 0.5913694 0.7825798
v -0.0104183 0.0190897 -0.0159818
vn -0.0647228 0.6643240 0.7446373
v -0.0330372 0.0200210 -0.0159984
vn 0.0584864 0.9978605 0.0292192
v -0.0002444 0.0182294 -0.0199209
vn -0.1623415 0.9845852 0.0650936
v -0.0403085 0.0182500 -0.0160000
vn -0.9755988 -0.1426246 0.1669290
v -0.0624622 -0.0068028 -0.0369267
vn -0.9955749 0.0935040 0.0093607
v -0.0641019 -0.0017333 -0.0507534
vn -0.9727244 0.1277708 0.1936026
v -0.0619363 -0.0015077 -0.0348385
vn -0.7264416 0.6799306 0.0998853
v -0.0565378 0.0134578 -0.0433866
vn -0.4599658 0.8816382 0.1055728
v -0.0468637 0.0203530 -0.0411121
vn -0.2307078 0.9727485 -0.0231180
v -0.0385391 0.0240629 -0.0528375
vn 0.2980578 0.9544511 -0.0135908
v -0.0089363 0.0203993 -0.0376913
vn 0.5455837 -0.8278253 -0.1305518
v -0.0039296 -0.0254935 -0.0417473
vn -0.2311414 -0.9601361 0.1572022
v -0.0369564 -0.0299678 -0.0288346
vn 0.2746562 -0.9614356 0.0143429
v -0.0086664 -0.0282127 -0.0332821
vn 0.0463490 -0.9945116 0.0938002
v -0.0262372 -0.0325507 -0.0412453
vn -0.5757139 -0.8089166 0.1191955
v -0.0516447 -0.0256411 -0.0408512
vn -0.8595265 -0.4896025 0.1466409
v -0.0598429 -0.0162051 -0.0396653
vn -0.8948109 0.4182965 0.1560176
v -0.0606532 0.0064985 -0.0383814
vn -0.9106785 0.4110308 0.0414538
v -0.0495398 0.0134068 -0.0160316
vn -0.3368014 0.6710847 -0.6604621
v -0.0444668 0.0165114 -0.0160103
vn -0.2000206 0.9704781 0.1347748
v -0.0372602 0.0229541 -0.0352677
vn 0.0633410 0.9934077 0.0955466
v -0.0247784 0.0240366 -0.0383032
vn 0.8037423 -0.5362965 0.2576519
v 0.0059935 -0.0238985 -0.0279311
vn 0.4553804 -0.6496454 0.6087607
v -0.0064902 -0.0268652 -0.0179032
vn 0.1130232 0.7332851 0.6704617
v -0.0105304 0.0182500 -0.0160066
vn -0.5767898 0.5800264 -0.5752243
v -0.0495205 0.0182500 -0.0160000
vn -0.0441781 0.6956282 -0.7170424
v 0.0083693 0.0182500 -0.0530000
vn 0.0475418 -0.7143369 -0.6981853
v 0.0102273 0.0002500 -0.0530000
vn -0.2946363 0.7517582 -0.5899568
v 0.0764244 0.0310337 -0.0530000
vn 0.0219037 -0.7252649 -0.6881214
v 0.0764244 0.0126847 -0.0530000
vn -0.1737381 -0.6898425 -0.7028034
v 0.0973743 0.0173698 -0.0621448
vn 0.4285898 -0.7096942 0.5591466
v 0.0987979 0.0150015 -0.0300000
vn 0.4025171 -0.7227325 0.5618165
v 0.0360744 0.0002500 0.0062134
vn 0.2595415 0.6602836 0.7047438
v 0.0339476 0.0181225 0.0075148
vn 0.1518869 0.7140111 0.6834608
v 0.0987979 0.0333505 -0.0300000
vn -0.4137309 0.7024187 -0.5791672
v 0.0949123 0.0351682 -0.0610701
vn -0.6085195 -0.0666097 -0.7907383
v 0.1026455 0.0266913 -0.0644469
vn -0.5450646 0.8382561 0.0152137
v 0.1014750 0.0358685 -0.0571922
vn -0.6800793 -0.6055982 0.4132106
v 0.1048493 0.0354163 -0.0421608
vn -0.7750140 0.3134535 0.5487260
v 0.1078302 0.0176217 -0.0424299
vn -0.2823092 -0.9577152 -0.0555256
v 0.1037132 0.0179195 -0.0568248
vn 0.2949631 -0.6822937 0.6689336
v 0.0321462 0.0002500 0.0084814
vn 0.1545679 0.6846635 0.7122813
v 0.0037965 0.0182500 0.0176837
vn 0.1526108 -0.6848611 0.7125133
v 0.0037670 0.0002500 0.0176852
vn 0.4874706 0.7071745 0.5121295
v 0.1444333 0.0459980 -0.0469193
vn 0.7880839 0.2831188 0.5465963
v 0.1488081 0.0393378 -0.0482435
vn 0.8139656 -0.0194945 0.5805859
v 0.1504642 0.0300295 -0.0488049
vn -0.1336087 0.3239173 0.9366037
v 0.1146319 0.0413908 -0.0357631
vn 0.0045159 0.3222446 0.9466457
v 0.1120884 0.0361305 -0.0348396
vn 0.0448902 -0.7005760 0.7121645
v 0.1184617 0.0140030 -0.0371577
vn 0.0547728 0.7004404 0.7116061
v 0.1186464 0.0459999 -0.0372242
vn -0.5198241 0.8150648 0.2558366
v 0.1080128 0.0460042 -0.0457654
vn 0.5765625 0.7829924 -0.2334492
v 0.1447398 0.0457456 -0.0624991
vn 0.0941094 0.8083228 -0.5811692
v 0.1293372 0.0459623 -0.0748735
vn 0.4727076 -0.6939415 0.5431323
v 0.1438529 0.0140010 -0.0464040
vn 0.5285091 -0.8327915 -0.1647315
v 0.1449031 0.0140013 -0.0613992
vn 0.1961554 -0.8189664 -0.5392746
v 0.1334105 0.0140144 -0.0733956
vn -0.4809759 -0.8576092 -0.1821226
v 0.1079321 0.0139998 -0.0622363
vn -0.5418263 -0.8058548 0.2387937
v 0.1081479 0.0139947 -0.0459072
vn -0.5362722 0.8143708 -0.2218385
v 0.1076797 0.0459918 -0.0632495
vn -0.8943025 0.4030789 0.1942948
v 0.1040560 0.0410216 -0.0488494
vn -0.7452030 0.3476465 -0.5690470
v 0.1038554 0.0366119 -0.0662521
vn -0.5679774 0.2779941 -0.7746748
v 0.1117861 0.0376089 -0.0744072
vn -0.6362882 0.4820738 0.6022809
v 0.1095351 0.0421250 -0.0402238
vn -0.6437315 -0.4987971 -0.5803544
v 0.1063333 0.0187774 -0.0660002
vn -0.7051448 -0.1407713 -0.6949491
v 0.1077400 0.0258621 -0.0720870
vn -0.3165238 -0.8003957 -0.5090966
v 0.1148007 0.0140666 -0.0722214
vn -0.3157267 0.8228626 -0.4724551
v 0.1144072 0.0459950 -0.0709545
vn -0.3808457 -0.2149142 -0.8993156
v 0.1166153 0.0233551 -0.0778611
vn -0.1849595 0.2271017 -0.9561458
v 0.1209946 0.0360169 -0.0794538
vn -0.0320840 -0.3423820 -0.9390129
v 0.1240327 0.0214492 -0.0788135
vn 0.3212796 0.2047103 -0.9245935
v 0.1345243 0.0360457 -0.0780731
vn 0.3515362 -0.1487296 -0.9242845
v 0.1349525 0.0259532 -0.0784896
vn 0.6027772 -0.4455705 -0.6619114
v 0.1406678 0.0185152 -0.0718931
vn 0.8178285 0.0340397 -0.5744544
v 0.1471495 0.0307288 -0.0696628
vn 0.5820915 0.4054684 -0.7048156
v 0.1405751 0.0397362 -0.0735602
vn 0.8649126 -0.4199831 -0.2748461
v 0.1479336 0.0188975 -0.0620411
vn 0.9731753 0.2166577 -0.0773911
v 0.1509501 0.0344339 -0.0555791
vn 0.9803062 -0.1520366 -0.1260344
v 0.1509946 0.0261111 -0.0582709
vn 0.7765194 -0.2851918 0.5618570
v 0.1482767 0.0203238 -0.0480095
vn 0.1303031 -0.4130541 0.9013365
v 0.1146007 0.0183655 -0.0357534
vn -0.6423746 -0.7661707 -0.0183669
v 0.0151408 0.0002500 0.0003339
vn -0.5024752 -0.7766866 -0.3798376
v 0.0122903 0.0002500 0.0090714
vn -0.2786909 -0.9542112 0.1086855
v -0.0351735 0.0002500 0.0124403
vn -0.1318297 -0.7913320 0.5970047
v 0.0030835 0.0002500 -0.0151326
vn -0.5136183 -0.7788337 0.3600200
v 0.0127279 0.0002500 -0.0084465
vn 0.6297383 -0.7768072 0.0004566
v -0.0151408 0.0002500 -0.0003339
vn 0.2084060 -0.7724884 -0.5998572
v -0.0041213 0.0002500 0.0144762
vn 0.5210276 -0.7737458 0.3603439
v -0.0122903 0.0002500 -0.0090714
vn -0.1725316 -0.7746078 -0.6084534
v 0.0035839 0.0002500 0.0148491
vn -0.1375542 -0.7752532 0.6164911
v -0.0388823 0.0002500 0.0223843
vn 0.4736248 -0.7915796 -0.3861106
v -0.0120891 0.0002500 0.0096102
vn 0.0961754 -0.6588331 -0.7461162
v -0.0416367 0.0018887 0.0205640
vn 0.2410127 -0.7626988 0.6001695
v -0.0061481 0.0002500 -0.0137385
vn -0.5483906 -0.8099411 0.2079980
v -0.0495833 0.0002500 0.0155077
vn -0.4280074 -0.8058741 0.4091168
v -0.0474805 0.0002500 0.0198376
vn -0.2904218 0.5701413 0.7685013
v -0.0442600 0.0057500 0.0226545
vn -0.7233770 0.6458272 0.2441984
v -0.0494911 0.0057500 0.0164759
vn -0.6237720 -0.0039755 -0.7815963
v 0.0097229 0.0092500 0.0115872
vn -0.9446200 -0.0117847 -0.3279549
v 0.0142138 0.0092500 0.0051735
vn -0.1040522 -0.9823390 0.1555097
v -0.0386602 0.0002891 0.0084896
vn -0.9169708 -0.3869524 -0.0971208
v -0.0359316 0.0022500 0.0148823
vn 0.6803371 -0.7264500 -0.0970157
v -0.0470844 0.0022500 0.0153495
vn 0.0954461 -0.9136363 0.3951692
v -0.0439380 0.0012546 0.0088752
vn 0.4958020 0.8503758 0.1761857
v -0.0458031 0.0057500 0.0127134
vn -0.0771739 0.8815910 -0.4656625
v -0.0405586 0.0057500 0.0192234
vn -0.3289686 0.8876385 0.3223004
v -0.0381064 0.0057500 0.0115254
vn -0.1020530 0.1549277 0.9826406
v -0.0240542 0.0057500 0.0207144
vn -0.9735318 0.1312965 0.1870755
v -0.0495205 0.0057500 -0.0047519
vn -0.1027419 -0.1462267 0.9839014
v -0.0240542 0.0147500 0.0207144
vn -0.9738535 -0.1288380 0.1871101
v -0.0495205 0.0147500 -0.0047519
vn -0.7192634 0.6490758 0.2477112
v -0.0494772 0.0182500 0.0170178
vn -0.7051777 -0.5925776 0.3893278
v -0.0492955 0.0147500 0.0181284
vn -0.2492331 0.6023753 0.7583053
v -0.0434756 0.0182500 0.0227662
vn -0.1462450 -0.6643704 0.7329559
v -0.0426352 0.0147500 0.0226700
vn -0.3440434 -0.8845739 0.3149018
v -0.0382006 0.0147500 0.0119302
vn -0.1792149 -0.9338864 -0.3094160
v -0.0386855 0.0147500 0.0181449
vn 0.3800373 -0.9224631 -0.0680691
v -0.0460590 0.0147500 0.0156385
vn 0.1287026 -0.8582082 0.4969049
v -0.0424901 0.0147500 0.0105033
vn 0.1637528 0.9047047 0.3933122
v -0.0431386 0.0182500 0.0104816
vn 0.2303237 0.9376846 -0.2601896
v -0.0450768 0.0182500 0.0177256
vn -0.3576114 0.9335117 -0.0258856
v -0.0366773 0.0182500 0.0148443
vn 0.5956283 0.7794608 0.1940823
v -0.0143418 0.0182500 -0.0048648
vn 0.5350121 0.8054795 -0.2548821
v -0.0139955 0.0182500 0.0069982
vn 0.2321769 0.7809592 -0.5798246
v -0.0048648 0.0182500 0.0143418
vn -0.6010351 0.7755948 -0.1928980
v 0.0143418 0.0182500 0.0048648
vn -0.1313663 0.7816105 0.6097770
v 0.0035839 0.0182500 -0.0148491
vn -0.4561203 0.7624570 0.4589268
v 0.0104762 0.0182500 -0.0108072
vn -0.5957385 0.7845575 0.1719455
v 0.0146517 0.0182500 -0.0043208
vn 0.3035117 0.7955178 0.5244350
v -0.0080732 0.0182500 -0.0131654
vn -0.4191334 0.7720496 -0.4777726
v 0.0099881 0.0182500 0.0113839
vn -0.1428920 0.7642251 -0.6289213
v 0.0029580 0.0182500 0.0148528
vn 0.0324727 -0.0016914 -0.9994712
v 0.0000000 0.0092500 0.0154245
vn 0.8054163 0.0058180 -0.5926809
v -0.0128017 0.0092500 0.0089639
vn 0.9874606 -0.0076232 0.1576816
v -0.0148962 0.0092500 -0.0026266
vn 0.6359286 -0.0062320 0.7717227
v -0.0099147 0.0092500 -0.0118159
vn -0.9666298 -0.0124393 0.2558752
v 0.0147371 0.0092500 -0.0039488
vn -0.0540453 -0.0114409 0.9984730
v 0.0013297 0.0092500 -0.0151989
vn -0.6427987 0.0014276 0.7660338
v 0.0097229 0.0092500 -0.0115872
# 196 vertices, 0 vertices normals


usemtl material_0
f 8//8 17//17 21//21
f 8//8 12//12 17//17
f 36//36 8//8 10//10
f 42//42 12//12 9//9
f 12//12 42//42 11//11
f 40//40 13//13 14//14
f 15//15 12//12 14//14
f 32//32 16//16 13//13
f 16//16 15//15 13//13
f 18//18 26//26 30//30
f 18//18 16//16 26//26
f 18//18 17//17 16//16
f 17//17 12//12 15//15
f 17//17 18//18 21//21
f 20//20 21//21 19//19
f 20//20 10//10 21//21
f 23//23 1//1 24//24
f 22//22 26//26 24//24
f 3//3 30//30 25//25
f 25//25 30//30 26//26
f 29//29 27//27 2//2
f 3//3 4//4 31//31
f 29//29 28//28 33//33
f 30//30 3//3 31//31
f 26//26 32//32 24//24
f 24//24 32//32 41//41
f 30//30 31//31 18//18
f 29//29 33//33 20//20
f 33//33 35//35 10//10
f 63//63 34//34 35//35
f 34//34 36//36 35//35
f 37//37 5//5 67//67
f 38//38 37//37 67//67
f 38//38 42//42 9//9
f 23//23 41//41 43//43
f 43//43 1//1 23//23
f 7//7 43//43 41//41
f 38//38 6//6 42//42
f 6//6 39//39 11//11
f 11//11 40//40 14//14
f 41//41 13//13 40//40
f 40//40 11//11 39//39
f 11//11 42//42 6//6
f 40//40 39//39 7//7
f 41//41 40//40 7//7
f 36//36 37//37 9//9
f 9//9 37//37 38//38
f 10//10 35//35 36//36
f 36//36 5//5 37//37
f 36//36 34//34 5//5
f 29//29 31//31 27//27
f 16//16 32//32 26//26
f 13//13 41//41 32//32
f 35//35 33//33 28//28
f 27//27 31//31 4//4
f 35//35 28//28 63//63
f 29//29 2//2 28//28
f 41//41 23//23 24//24
f 22//22 25//25 26//26
f 20//20 33//33 10//10
f 19//19 21//21 18//18
f 19//19 18//18 31//31
f 31//31 29//29 19//19
f 20//20 19//19 29//29
f 17//17 15//15 16//16
f 8//8 9//9 12//12
f 14//14 12//12 11//11
f 14//14 13//13 15//15
f 8//8 36//36 9//9
f 21//21 10//10 8//8
f 44//44 1//1 43//43
f 44//44 80//80 1//1
f 45//45 81//81 80//80
f 80//80 44//44 45//45
f 45//45 48//48 46//46
f 46//46 81//81 45//45
f 47//47 81//81 46//46
f 49//49 76//76 50//50
f 51//51 76//76 55//55
f 53//53 52//52 46//46
f 53//53 46//46 51//51
f 46//46 54//54 47//47
f 52//52 54//54 46//46
f 49//49 55//55 76//76
f 55//55 53//53 51//51
f 48//48 56//56 57//57
f 57//57 46//46 48//48
f 46//46 57//57 51//51
f 63//63 62//62 64//64
f 75//75 63//63 64//64
f 65//65 75//75 76//76
f 65//65 76//76 66//66
f 74//74 28//28 2//2
f 63//63 28//28 62//62
f 63//63 75//75 34//34
f 65//65 5//5 34//34
f 65//65 34//34 75//75
f 65//65 66//66 5//5
f 66//66 67//67 5//5
f 79//79 38//38 67//67
f 68//68 39//39 6//6
f 1//1 22//22 24//24
f 22//22 69//69 25//25
f 71//71 3//3 25//25
f 71//71 72//72 3//3
f 73//73 4//4 70//70
f 72//72 4//4 3//3
f 27//27 4//4 73//73
f 2//2 27//27 73//73
f 74//74 73//73 55//55
f 47//47 72//72 71//71
f 62//62 74//74 55//55
f 66//66 76//76 77//77
f 66//66 77//77 78//78
f 79//79 60//60 68//68
f 81//81 71//71 80//80
f 47//47 71//71 81//81
f 54//54 72//72 47//47
f 54//54 70//70 72//72
f 53//53 70//70 52//52
f 62//62 55//55 49//49
f 49//49 64//64 62//62
f 75//75 64//64 50//50
f 50//50 76//76 75//75
f 61//61 78//78 77//77
f 78//78 61//61 59//59
f 59//59 79//79 78//78
f 79//79 59//59 58//58
f 79//79 58//58 60//60
f 60//60 39//39 68//68
f 49//49 50//50 64//64
f 54//54 52//52 70//70
f 70//70 53//53 73//73
f 69//69 80//80 71//71
f 53//53 55//55 73//73
f 4//4 72//72 70//70
f 22//22 1//1 69//69
f 69//69 71//71 25//25
f 1//1 80//80 69//69
f 67//67 78//78 79//79
f 6//6 38//38 79//79
f 74//74 62//62 28//28
f 78//78 67//67 66//66
f 68//68 6//6 79//79
f 73//73 74//74 2//2
f 82//82 58//58 59//59
f 59//59 61//61 82//82
f 82//82 60//60 58//58
f 61//61 77//77 83//83
f 77//77 76//76 83//83
f 7//7 39//39 84//84
f 84//84 85//85 7//7
f 85//85 43//43 7//7
f 84//84 86//86 87//87
f 87//87 85//85 84//84
f 88//88 138//138 89//89
f 90//90 85//85 87//87
f 87//87 89//89 90//90
f 89//89 87//87 88//88
f 91//91 92//92 86//86
f 93//93 86//86 92//92
f 92//92 106//106 93//93
f 86//86 84//84 91//91
f 88//88 87//87 94//94
f 94//94 87//87 86//86
f 94//94 86//86 93//93
f 119//119 94//94 93//93
f 94//94 122//122 88//88
f 93//93 95//95 119//119
f 96//96 93//93 106//106
f 96//96 95//95 93//93
f 138//138 88//88 97//97
f 98//98 97//97 88//88
f 88//88 122//122 98//98
f 99//99 90//90 91//91
f 91//91 90//90 89//89
f 89//89 92//92 91//91
f 100//100 101//101 99//99
f 99//99 91//91 100//100
f 103//103 102//102 108//108
f 108//108 104//104 103//103
f 104//104 108//108 105//105
f 112//112 106//106 138//138
f 137//137 104//104 105//105
f 138//138 107//107 112//112
f 138//138 106//106 92//92
f 105//105 106//106 137//137
f 92//92 89//89 138//138
f 106//106 112//112 137//137
f 121//121 96//96 106//106
f 124//124 122//122 123//123
f 126//126 123//123 120//120
f 127//127 120//120 125//125
f 129//129 127//127 111//111
f 130//130 128//128 127//127
f 133//133 129//129 111//111
f 131//131 114//114 130//130
f 132//132 130//130 129//129
f 134//134 113//113 131//131
f 134//134 131//131 132//132
f 132//132 133//133 110//110
f 134//134 112//112 113//113
f 136//136 134//134 132//132
f 136//136 132//132 135//135
f 135//135 103//103 104//104
f 136//136 104//104 137//137
f 106//106 105//105 121//121
f 109//109 121//121 108//108
f 117//117 118//118 109//109
f 133//133 111//111 110//110
f 136//136 135//135 104//104
f 131//131 113//113 114//114
f 128//128 114//114 124//124
f 122//122 124//124 115//115
f 98//98 115//115 116//116
f 97//97 98//98 116//116
f 123//123 122//122 94//94
f 119//119 123//123 94//94
f 118//118 95//95 96//96
f 119//119 95//95 117//117
f 98//98 122//122 115//115
f 107//107 138//138 116//116
f 116//116 138//138 97//97
f 109//109 118//118 121//121
f 105//105 108//108 121//121
f 134//134 136//136 137//137
f 110//110 103//103 135//135
f 110//110 135//135 132//132
f 112//112 134//134 137//137
f 102//102 103//103 110//110
f 130//130 132//132 131//131
f 129//129 133//133 132//132
f 128//128 130//130 114//114
f 127//127 129//129 130//130
f 126//126 127//127 128//128
f 126//126 128//128 124//124
f 125//125 111//111 127//127
f 123//123 126//126 124//124
f 120//120 127//127 126//126
f 119//119 117//117 125//125
f 119//119 125//125 120//120
f 119//119 120//120 123//123
f 118//118 96//96 121//121
f 95//95 118//118 117//117
f 112//112 107//107 116//116
f 112//112 124//124 114//114
f 115//115 124//124 112//112
f 113//113 112//112 114//114
f 116//116 115//115 112//112
f 102//102 111//111 125//125
f 125//125 117//117 102//102
f 102//102 110//110 111//111
f 109//109 108//108 102//102
f 102//102 117//117 109//109
f 144//144 149//149 141//141
f 139//139 90//90 99//99
f 101//101 147//147 140//140
f 90//90 139//139 143//143
f 99//99 140//140 139//139
f 141//141 146//146 144//144
f 143//143 142//142 44//44
f 140//140 99//99 101//101
f 149//149 148//148 141//141
f 158//158 48//48 146//146
f 143//143 44//44 90//90
f 145//145 101//101 148//148
f 56//56 48//48 158//158
f 48//48 151//151 146//146
f 148//148 149//149 145//145
f 148//148 153//153 150//150
f 146//146 141//141 158//158
f 145//145 147//147 101//101
f 56//56 161//161 152//152
f 142//142 151//151 48//48
f 56//56 158//158 161//161
f 142//142 48//48 45//45
f 85//85 90//90 44//44
f 44//44 43//43 85//85
f 45//45 44//44 142//142
f 153//153 154//154 155//155
f 155//155 152//152 153//153
f 154//154 153//153 148//148
f 151//151 142//142 195//195
f 146//146 151//151 193//193
f 144//144 146//146 192//192
f 149//149 144//144 191//191
f 145//145 149//149 191//191
f 147//147 145//145 190//190
f 140//140 147//147 156//156
f 139//139 140//140 157//157
f 143//143 139//139 194//194
f 142//142 143//143 196//196
f 196//196 195//195 142//142
f 194//194 196//196 143//143
f 157//157 194//194 139//139
f 156//156 157//157 140//140
f 190//190 156//156 147//147
f 191//191 190//190 145//145
f 192//192 191//191 144//144
f 193//193 192//192 146//146
f 195//195 193//193 151//151
f 153//153 152//152 160//160
f 141//141 148//148 159//159
f 159//159 158//158 141//141
f 150//150 159//159 148//148
f 160//160 150//150 153//153
f 161//161 160//160 152//152
f 159//159 161//161 158//158
f 160//160 161//161 162//162
f 150//150 160//160 162//162
f 159//159 150//150 163//163
f 161//161 159//159 164//164
f 163//163 164//164 159//159
f 162//162 163//163 150//150
f 164//164 162//162 161//161
f 165//165 166//166 164//164
f 164//164 163//163 165//165
f 154//154 163//163 162//162
f 162//162 166//166 155//155
f 166//166 162//162 164//164
f 162//162 155//155 154//154
f 163//163 154//154 165//165
f 167//167 168//168 166//166
f 166//166 165//165 167//167
f 168//168 83//83 76//76
f 169//169 83//83 168//168
f 76//76 56//56 166//166
f 76//76 166//166 168//168
f 155//155 166//166 56//56
f 56//56 152//152 155//155
f 51//51 57//57 56//56
f 56//56 76//76 51//51
f 168//168 170//170 169//169
f 100//100 167//167 165//165
f 171//171 172//172 167//167
f 148//148 101//101 165//165
f 167//167 100//100 171//171
f 165//165 101//101 100//100
f 165//165 154//154 148//148
f 171//171 170//170 172//172
f 170//170 171//171 169//169
f 167//167 174//174 173//173
f 172//172 170//170 175//175
f 170//170 168//168 175//175
f 173//173 168//168 167//167
f 167//167 172//172 174//174
f 175//175 174//174 172//172
f 176//176 175//175 168//168
f 173//173 176//176 168//168
f 175//175 176//176 177//177
f 174//174 175//175 178//178
f 173//173 174//174 179//179
f 176//176 173//173 177//177
f 179//179 177//177 173//173
f 178//178 179//179 174//174
f 177//177 178//178 175//175
f 82//82 61//61 177//177
f 61//61 83//83 177//177
f 179//179 182//182 181//181
f 181//181 180//180 179//179
f 39//39 60//60 84//84
f 171//171 100//100 179//179
f 179//179 100//100 182//182
f 180//180 82//82 179//179
f 169//169 178//178 177//177
f 178//178 169//169 171//171
f 100//100 189//189 182//182
f 177//177 179//179 82//82
f 177//177 83//83 169//169
f 100//100 91//91 188//188
f 84//84 184//184 185//185
f 60//60 184//184 84//84
f 179//179 178//178 171//171
f 60//60 82//82 187//187
f 84//84 185//185 186//186
f 186//186 183//183 91//91
f 186//186 91//91 84//84
f 187//187 184//184 60//60
f 180//180 187//187 82//82
f 183//183 188//188 91//91
f 188//188 189//189 100//100
f 193//193 195//195 187//187
f 192//192 193//193 180//180
f 191//191 192//192 181//181
f 190//190 191//191 182//182
f 156//156 190//190 189//189
f 157//157 156//156 188//188
f 194//194 157//157 183//183
f 196//196 194//194 186//186
f 195//195 196//196 184//184
f 185//185 184//184 196//196
f 186//186 185//185 196//196
f 183//183 186//186 194//194
f 188//188 183//183 157//157
f 189//189 188//188 156//156
f 182//182 189//189 190//190
f 181//181 182//182 191//191
f 180//180 181//181 192//192
f 187//187 180//180 193//193
f 184//184 187//187 195//195
# 400 faces, 0 coords texture

# End of File
