# Blender 5.1.1
# www.blender.org
mtllib pedestal_purdue.mtl
o pedestal_purdue
v 0.032756 -0.009547 0.018000
v 0.035448 -0.006407 0.018000
v 0.031152 -0.006325 0.018000
v 0.033468 -0.009859 0.025640
v 0.034958 -0.005627 0.025730
v 0.030994 -0.006367 0.025785
v 0.004740 -0.082500 0.026000
v -0.002802 -0.032504 0.026000
v 0.002984 -0.032054 0.026000
v -0.000793 -0.037310 0.026000
v 0.082500 0.002785 0.026000
v 0.032038 0.003055 0.026000
v 0.033207 -0.003310 0.026000
v 0.037157 0.000110 0.026000
v -0.032980 0.009851 0.025764
v -0.034432 0.005057 0.025833
v -0.035852 0.008133 0.025777
v -0.030394 0.006677 0.025760
v -0.002894 0.032547 0.026000
v -0.000306 0.037390 0.026000
v 0.002850 0.031991 0.026000
v -0.022560 0.020613 0.026067
v -0.017150 0.023155 0.025887
v -0.027300 0.024289 0.026000
v -0.020980 0.026038 0.026000
v -0.004591 0.028467 0.025865
v 0.011739 0.026373 0.025918
v 0.023721 0.027590 0.026000
v 0.021582 0.021740 0.026000
v 0.025611 0.014163 0.025911
v 0.026871 0.022472 0.026000
v 0.028278 -0.005628 0.025901
v 0.027101 -0.025327 0.026000
v 0.014925 -0.024356 0.025757
v 0.020898 -0.025657 0.026000
v 0.022563 -0.020254 0.026090
v 0.001030 -0.028963 0.025886
v -0.016032 -0.024002 0.025862
v -0.026843 -0.022545 0.026000
v -0.024106 -0.027604 0.026000
v -0.021656 -0.021614 0.026000
v -0.082175 -0.082132 0.025774
v -0.074947 -0.068367 0.025894
v -0.081648 -0.074885 0.025861
v -0.068501 -0.075323 0.025515
v -0.075933 -0.081409 0.025532
v 0.082870 -0.080468 0.025683
v 0.080865 -0.076895 0.025621
v 0.075915 -0.081243 0.025566
v 0.080096 -0.083010 0.025652
v 0.070168 -0.079131 0.025492
v 0.079522 -0.070559 0.025527
v 0.070201 -0.070217 0.025847
v 0.082071 0.082195 0.025906
v 0.079567 0.079475 0.025638
v 0.075736 0.068703 0.025541
v 0.070945 0.080036 0.025520
v 0.069232 0.072305 0.025926
v 0.080841 0.073103 0.025579
v -0.080170 0.078269 0.025709
v -0.082253 0.082009 0.025870
v -0.074004 0.081567 0.025504
v -0.068940 0.075593 0.025559
v -0.071663 0.069337 0.025937
v -0.080003 0.070793 0.025491
v -0.035947 0.003050 0.026000
v -0.034910 -0.003323 0.026000
v -0.030035 -0.000224 0.026100
v -0.027302 -0.009807 0.025894
v 0.052637 -0.000027 0.026000
v 0.082048 0.082226 0.016197
v -0.082221 0.082106 0.016284
v 0.078320 0.072359 0.015887
v 0.082216 -0.082101 0.016271
v -0.082464 -0.081223 0.016103
v -0.080130 -0.083348 0.017012
v -0.055550 -0.082500 0.016000
v -0.030681 0.008275 0.018000
v -0.033192 0.004763 0.018000
v -0.035411 0.009108 0.018000
v -0.003176 -0.035046 0.018943
v 0.000205 -0.030863 0.018720
v 0.003049 -0.035465 0.018959
v 0.000406 -0.028701 0.016410
v 0.006304 -0.034224 0.016087
v -0.001867 -0.039909 0.016046
v -0.005754 -0.033153 0.016008
v 0.035541 -0.003011 0.018959
v 0.030853 0.001129 0.018935
v 0.036066 0.002370 0.018745
v 0.029230 0.005339 0.015912
v 0.039969 0.001098 0.016029
v 0.037078 -0.004860 0.016005
v 0.028697 -0.003731 0.016083
v 0.024486 0.020868 0.018806
v 0.020993 0.025565 0.018995
v 0.027032 0.025376 0.018816
v 0.020809 0.029186 0.016023
v 0.030405 0.025204 0.016221
v 0.023193 0.018029 0.015928
v 0.018494 0.022265 0.016195
v 0.003207 0.034661 0.018816
v 0.000130 0.030859 0.018729
v -0.002886 0.035810 0.019176
v 0.002390 0.039449 0.016016
v 0.005876 0.032490 0.016031
v -0.005874 0.036257 0.016063
v -0.000448 0.028598 0.016460
v -0.024592 0.020817 0.018840
v -0.026998 0.025089 0.018740
v -0.023938 0.028041 0.017053
v -0.020898 0.024006 0.018739
v -0.017545 0.023889 0.015931
v -0.030009 0.021490 0.016256
v -0.022895 0.018108 0.016161
v -0.033522 -0.003174 0.018774
v -0.037151 0.001116 0.018947
v -0.031115 0.001657 0.018889
v -0.028485 0.002047 0.016331
v -0.033882 -0.006315 0.016080
v -0.039477 0.003566 0.016163
v -0.021360 -0.026176 0.019167
v -0.027019 -0.025018 0.018739
v -0.024476 -0.020805 0.018871
v -0.027739 -0.019375 0.016012
v -0.023389 -0.017572 0.015991
v -0.020274 -0.028804 0.016025
v -0.029222 -0.027528 0.016050
v 0.027236 -0.023736 0.018774
v 0.024503 -0.027089 0.018726
v 0.020931 -0.024669 0.018802
v 0.023615 -0.020924 0.018703
v 0.018573 -0.022031 0.016097
v 0.022979 -0.017967 0.016037
v 0.030479 -0.022865 0.016158
v 0.021506 -0.029801 0.016101
v -0.018135 -0.022780 0.016043
v -0.081124 0.075213 0.020000
v -0.076171 0.069121 0.020000
v -0.070726 0.072626 0.020000
v -0.071361 0.078565 0.020000
v -0.076632 0.079321 0.020000
v -0.078754 0.073097 0.020000
v -0.075848 0.070785 0.016000
v -0.071643 0.077368 0.016000
v -0.077953 0.077412 0.016000
v -0.080030 -0.075876 0.020000
v -0.076171 -0.080879 0.020000
v -0.070959 -0.077675 0.020000
v -0.070957 -0.071729 0.020000
v -0.077049 -0.070520 0.020000
v -0.075729 -0.078658 0.016000
v -0.070770 -0.074228 0.016000
v -0.078754 -0.073097 0.016000
v 0.068788 0.075898 0.020000
v 0.073829 0.069121 0.020000
v 0.081335 0.074069 0.020000
v 0.075424 0.079859 0.020000
v 0.071246 0.073097 0.020000
v 0.079034 0.073800 0.020000
v 0.070632 0.075158 0.016000
v 0.078004 0.077649 0.016000
v 0.071246 -0.073097 0.016000
v 0.079034 -0.073800 0.016000
v 0.074661 -0.078798 0.016000
v 0.070632 -0.075158 0.020000
v 0.078004 -0.077649 0.020000
v 0.075708 -0.070034 0.020000
v 0.068788 -0.074102 0.020000
v 0.073829 -0.080879 0.020000
v 0.081335 -0.075931 0.020000
vn 0.6975 -0.4184 0.5818
vn 0.1220 0.8020 0.5847
vn -0.7409 -0.3266 0.5869
vn 0.3206 -0.1581 0.9339
vn -0.0251 0.2877 0.9574
vn -0.2119 -0.2822 0.9357
vn -0.0017 -0.3965 0.9180
vn 0.0489 0.3439 0.9377
vn 0.3446 -0.2007 0.9171
vn -0.2573 -0.1295 0.9576
vn -0.0220 0.6221 0.7826
vn 0.2726 -0.3164 0.9086
vn 0.3307 0.5500 0.7669
vn 0.3152 -0.0210 0.9488
vn -0.2477 0.3882 0.8876
vn -0.0032 -0.0031 1.0000
vn -0.5362 -0.3103 0.7850
vn -0.0093 0.0020 1.0000
vn -0.6406 0.1133 0.7595
vn -0.0000 -0.0000 1.0000
vn -0.0003 -0.0376 0.9993
vn 0.2840 -0.0624 0.9568
vn -0.0931 -0.4784 0.8732
vn 0.5109 -0.0438 0.8585
vn 0.3302 0.0117 0.9438
vn -0.4961 0.1226 0.8596
vn 0.2102 0.4178 0.8839
vn 0.4420 0.2373 0.8650
vn 0.2594 -0.5613 0.7859
vn 0.1030 -0.6339 0.7665
vn -0.0000 0.0011 1.0000
vn -0.0063 -0.0202 0.9998
vn -0.0016 -0.0143 0.9999
vn -0.2376 -0.5717 0.7853
vn -0.4278 0.1406 0.8929
vn 0.3516 -0.1182 0.9287
vn 0.1500 0.1687 0.9742
vn -0.0047 0.0051 1.0000
vn 0.0095 -0.0093 0.9999
vn -0.0105 -0.0122 0.9999
vn 0.2818 0.1832 0.9418
vn -0.4156 -0.0061 0.9095
vn -0.2730 0.6249 0.7315
vn -0.0053 0.0058 1.0000
vn 0.5802 0.2176 0.7848
vn 0.0244 -0.0301 0.9992
vn 0.0220 0.0114 0.9997
vn -0.4066 0.0024 0.9136
vn -0.0026 -0.5779 0.8161
vn -0.5562 -0.5321 0.6384
vn 0.0548 0.5642 0.8238
vn 0.2165 -0.7421 0.6343
vn 0.4114 0.3201 0.8534
vn -0.5268 0.1998 0.8262
vn -0.0999 0.5554 0.8256
vn 0.7272 -0.2598 0.6354
vn 0.7702 0.0038 0.6378
vn -0.3274 -0.3485 0.8783
vn -0.6225 0.1937 0.7583
vn -0.0554 0.4936 0.8679
vn 0.5857 0.5554 0.5903
vn 0.2560 -0.5067 0.8232
vn -0.3169 -0.3688 0.8738
vn -0.5517 0.5863 0.5932
vn -0.0350 -0.6900 0.7230
vn 0.3760 -0.3012 0.8763
vn 0.4424 0.3146 0.8398
vn -0.4871 -0.0264 0.8730
vn 0.1834 -0.2355 0.9544
vn -0.0002 -0.0077 1.0000
vn 0.7412 -0.6695 -0.0486
vn 0.5747 0.5672 -0.5900
vn -0.5727 0.6094 -0.5483
vn -0.1661 0.2928 -0.9417
vn 0.0201 -0.0318 -0.9993
vn -0.2056 -0.8758 -0.4368
vn -0.6811 -0.3443 -0.6462
vn 0.0016 -0.4519 -0.8920
vn -0.7361 -0.2982 0.6076
vn 0.0664 0.7950 0.6030
vn 0.6442 -0.4577 0.6127
vn -0.8528 0.4826 0.1997
vn 0.9085 0.3395 0.2437
vn -0.0401 -0.9849 0.1682
vn 0.6790 -0.1792 -0.7119
vn -0.0122 0.4709 -0.8821
vn 0.5992 0.1612 -0.7842
vn -0.1311 0.0850 -0.9877
vn 0.0723 -0.6957 -0.7147
vn 0.1603 0.6733 -0.7218
vn -0.5522 0.3960 -0.7336
vn 0.3328 0.9329 -0.1374
vn -0.9839 -0.0863 -0.1566
vn -0.3976 0.8889 0.2277
vn 0.5487 -0.8110 -0.2029
vn 0.9481 -0.2437 0.2041
vn -0.6529 -0.7419 0.1528
vn -0.7828 -0.4579 -0.4213
vn -0.6931 -0.1970 -0.6934
vn -0.4388 -0.6948 -0.5698
vn -0.3948 0.6725 -0.6260
vn -0.2359 0.5740 -0.7842
vn -0.5324 0.3227 -0.7826
vn 0.5176 -0.1340 -0.8451
vn 0.7544 0.6373 -0.1573
vn -0.8808 0.4362 -0.1844
vn -0.0953 0.9760 0.1960
vn 0.0834 -0.9775 -0.1938
vn 0.8731 -0.4291 0.2314
vn -0.8766 -0.4443 0.1852
vn -0.1503 -0.4918 -0.8577
vn 0.0785 -0.1924 -0.9782
vn 0.5242 -0.2799 -0.8043
vn -0.6822 -0.1176 -0.7216
vn -0.5017 -0.4153 -0.7588
vn -0.0122 0.2023 -0.9792
vn -0.1951 0.6600 -0.7255
vn 0.8668 0.4766 -0.1464
vn -0.8131 0.5380 -0.2223
vn 0.0355 0.9843 0.1727
vn 0.0130 -0.9883 -0.1520
vn 0.8065 -0.5246 0.2726
vn -0.9376 -0.2955 0.1835
vn 0.6882 -0.2181 -0.6920
vn -0.2489 -0.6443 -0.7232
vn 0.5293 -0.3021 -0.7928
vn -0.6871 0.1876 -0.7019
vn -0.5928 -0.1879 -0.7832
vn 0.1291 0.6852 -0.7168
vn 0.0818 0.6438 -0.7608
vn -0.7883 -0.6147 -0.0265
vn 0.1102 0.9937 -0.0212
vn 0.8596 -0.4492 -0.2436
vn 0.1682 -0.9750 -0.1455
vn -0.9894 0.1368 -0.0495
vn 0.1604 0.0701 -0.9846
vn 0.5230 -0.1415 -0.8405
vn 0.0553 0.6116 -0.7892
vn 0.1067 -0.3515 -0.9301
vn -0.6412 0.0324 -0.7667
vn -0.0728 -0.0592 -0.9956
vn 0.3749 0.9205 -0.1103
vn -0.1029 0.9729 0.2072
vn 0.9284 -0.3209 0.1873
vn -0.7995 -0.5518 0.2371
vn 0.5918 -0.3919 -0.7044
vn 0.5678 -0.1414 -0.8109
vn -0.5132 -0.5022 -0.6961
vn -0.0081 0.1394 -0.9902
vn -0.1558 0.6320 -0.7591
vn 0.6719 -0.0991 -0.7340
vn -0.0118 0.9788 -0.2044
vn -0.7524 -0.6396 -0.1576
vn -0.7891 0.5696 0.2302
vn 0.8853 -0.4351 -0.1643
vn 0.9198 0.3533 0.1709
vn 0.0622 -0.9752 0.2123
vn 0.5273 0.4062 -0.7462
vn 0.1936 -0.1745 -0.9654
vn 0.5836 0.1966 -0.7879
vn 0.5391 0.0783 -0.8386
vn 0.0210 -0.5148 -0.8571
vn 0.0901 0.5429 -0.8350
vn -0.1205 0.2062 -0.9711
vn -0.4049 0.3844 -0.8296
vn -0.1415 0.9891 0.0403
vn 0.1477 -0.9890 0.0052
vn -0.9863 -0.1645 0.0138
vn 0.9935 0.1123 0.0200
vn -0.5933 0.1257 -0.7951
vn -0.1488 -0.0200 -0.9887
vn 0.0276 -0.6231 -0.7816
vn 0.2434 0.6974 -0.6741
vn -0.3611 0.7862 -0.5015
vn -0.0939 0.5417 -0.8353
vn 0.6850 0.1377 -0.7154
vn -0.6279 0.0002 -0.7783
vn 0.0087 0.0055 -0.9999
vn -0.0129 -0.8529 -0.5218
vn 0.1296 0.7652 0.6307
vn 0.9835 -0.1248 0.1312
vn -0.7949 0.4547 0.4016
vn -0.6869 -0.6735 0.2730
vn 0.4072 -0.8697 0.2789
vn 0.3429 0.1799 0.9220
vn 0.0372 0.3460 -0.9375
vn 0.7862 -0.5411 0.2985
vn -0.4229 -0.2357 -0.8750
vn 0.1629 0.7719 0.6145
vn 0.9195 0.2343 0.3157
vn -0.7332 0.6140 0.2922
vn -0.6876 -0.6559 0.3115
vn 0.3634 -0.8631 0.3506
vn 0.1759 0.9818 0.0719
vn 0.7247 -0.4752 0.4991
vn -0.8313 -0.2160 0.5121
vn 0.1782 0.9672 0.1810
vn 0.7754 -0.1306 0.6178
vn -0.7789 0.1160 0.6163
vn -0.0932 -0.8681 0.4876
vn -0.0001 0.0001 1.0000
vn 0.2975 0.0274 -0.9543
vn 0.7950 0.6014 -0.0796
vn -0.6841 -0.6974 0.2137
vn -0.8930 0.3967 -0.2125
vn 0.0131 -0.9876 0.1563
vn -0.0000 -0.0000 -1.0000
vn -0.0171 -0.0009 -0.9999
vn -0.0064 -0.0161 -0.9999
vn -0.0548 0.0106 -0.9984
vn -0.0000 0.0431 -0.9991
vn -0.0147 -0.0269 -0.9995
vn -0.0040 -0.0123 -0.9999
vn 0.0060 -0.0022 -1.0000
vn -0.0730 0.0415 -0.9965
vn 0.0064 0.0001 -1.0000
vn 0.0244 -0.0172 -0.9996
vn -0.0011 -0.0031 -1.0000
vn -0.0006 0.0002 -1.0000
vn -0.0104 -0.0077 -0.9999
vn -0.0036 0.0010 -1.0000
vn 0.1077 0.2384 -0.9652
vn 0.0115 0.0135 -0.9998
vn 0.0490 -0.0050 -0.9988
vn 0.0077 -0.0470 -0.9989
vn 0.1350 0.9908 -0.0075
vn 0.8329 -0.4495 0.3229
vn 0.3641 0.0772 0.9281
vn -0.9462 -0.2808 0.1608
vn -0.6931 0.6939 -0.1951
vn -0.1696 -0.9298 0.3268
vn -0.0002 0.0002 1.0000
vn -0.7792 0.1195 0.6153
vn -0.1183 -0.9122 0.3924
vn 0.1565 0.9620 0.2237
vn 0.9739 -0.1483 0.1720
s 1
usemtl 0.231373_0.380392_0.705882_0.000000_0.000000
f 3//1 1//2 2//3
f 1//2 3//1 6//4
f 2//3 1//2 4//5
f 3//1 2//3 5//6
f 5//6 6//4 3//1
f 4//5 5//6 2//3
f 6//4 4//5 1//2
f 43//7 10//8 8//9
f 9//10 37//11 8//9
f 53//12 9//10 10//8
f 53//12 37//11 9//10
f 43//7 8//9 38//13
f 44//14 43//7 64//15
f 70//16 30//17 12//18
f 12//18 30//17 32//19
f 70//16 12//18 14//20
f 32//19 13//21 12//18
f 13//21 32//19 70//16
f 14//20 13//21 70//16
f 24//22 64//15 15//23
f 64//15 17//24 15//23
f 68//25 24//22 18//26
f 15//23 18//26 24//22
f 17//24 64//15 16//27
f 18//26 16//27 68//25
f 30//17 70//16 58//28
f 64//15 23//29 26//30
f 20//31 58//28 64//15
f 64//15 19//32 20//31
f 58//28 20//31 21//33
f 19//32 64//15 26//30
f 26//30 27//34 21//33
f 21//33 27//34 58//28
f 21//33 19//32 26//30
f 6//4 5//6 32//19
f 5//6 53//12 70//16
f 5//6 70//16 32//19
f 4//5 36//35 53//12
f 5//6 4//5 53//12
f 6//4 32//19 36//35
f 4//5 6//4 36//35
f 22//36 24//22 68//25
f 23//29 25//37 22//36
f 25//37 23//29 64//15
f 24//22 25//37 64//15
f 28//38 58//28 27//34
f 58//28 28//38 31//39
f 30//17 31//39 29//40
f 27//34 29//40 28//38
f 29//40 27//34 30//17
f 31//39 30//17 58//28
f 37//11 53//12 35//41
f 53//12 36//35 33//42
f 34//43 37//11 35//41
f 33//42 35//41 53//12
f 36//35 34//43 35//41
f 39//44 69//45 43//7
f 43//7 38//13 40//46
f 38//13 41//47 40//46
f 38//13 69//45 41//47
f 43//7 40//46 39//44
f 39//44 41//47 69//45
f 45//48 7//49 43//7
f 42//50 7//49 46//51
f 7//49 45//48 46//51
f 42//50 46//51 44//14
f 7//49 50//52 51//53
f 48//54 49//55 47//56
f 47//56 11//57 48//54
f 11//57 53//12 52//58
f 50//52 47//56 49//55
f 11//57 52//58 48//54
f 7//49 51//53 53//12
f 49//55 51//53 50//52
f 11//57 59//59 56//60
f 54//61 57//62 55//63
f 56//60 58//28 11//57
f 54//61 55//63 59//59
f 54//61 64//15 57//62
f 64//15 58//28 57//62
f 59//59 11//57 54//61
f 54//61 61//64 62//65
f 60//66 62//65 61//64
f 65//67 61//64 44//14
f 54//61 63//68 64//15
f 65//67 60//66 61//64
f 62//65 63//68 54//61
f 44//14 64//15 65//67
f 68//25 16//27 66//69
f 67//70 43//7 69//45
f 68//25 67//70 69//45
f 64//15 67//70 66//69
f 64//15 43//7 67//70
f 66//69 16//27 64//15
f 37//11 38//13 8//9
f 11//57 58//28 70//16
f 11//57 70//16 53//12
f 44//14 61//64 42//50
f 53//12 10//8 7//49
f 10//8 43//7 7//49
f 11//57 47//56 54//61
f 54//61 47//56 74//71
f 74//71 71//72 54//61
f 61//64 54//61 71//72
f 71//72 72//73 61//64
f 73//74 71//72 74//75
f 74//71 47//56 50//52
f 7//49 42//50 50//52
f 50//52 42//50 76//76
f 76//76 74//71 50//52
f 42//50 75//77 76//76
f 74//75 76//76 77//78
f 76//76 75//77 77//78
f 42//50 61//64 72//73
f 72//73 75//77 42//50
f 18//26 15//23 78//79
f 16//27 18//26 79//80
f 78//79 79//80 18//26
f 80//81 78//79 15//23
f 17//24 16//27 79//80
f 15//23 17//24 80//81
f 79//80 80//81 17//24
f 78//79 80//81 79//80
f 10//8 9//10 83//82
f 8//9 10//8 81//83
f 9//10 8//9 82//84
f 82//84 83//82 9//10
f 81//83 82//84 8//9
f 83//82 81//83 10//8
f 87//85 84//86 81//87
f 84//86 85//88 82//89
f 85//88 86//90 83//91
f 86//90 87//85 81//87
f 81//87 83//91 86//90
f 83//91 82//89 85//88
f 82//89 81//87 84//86
f 13//92 14//93 88//94
f 12//95 13//92 89//96
f 14//93 12//95 90//97
f 90//97 88//94 14//93
f 89//96 90//97 12//95
f 88//94 89//96 13//92
f 91//98 92//99 90//100
f 92//99 93//101 88//102
f 93//101 94//103 88//102
f 94//103 91//98 89//104
f 89//104 88//102 94//103
f 88//102 90//100 92//99
f 90//100 89//104 91//98
f 29//105 31//106 95//107
f 28//108 29//105 96//109
f 31//106 28//108 97//110
f 96//109 97//110 28//108
f 95//107 96//109 29//105
f 97//110 95//107 31//106
f 101//111 98//112 96//113
f 98//112 99//114 97//115
f 99//114 100//116 95//117
f 95//117 100//116 101//111
f 101//111 96//113 95//117
f 95//117 97//115 99//114
f 97//115 96//113 98//112
f 19//118 21//119 103//120
f 20//121 19//118 104//122
f 21//119 20//121 102//123
f 104//122 102//123 20//121
f 103//120 104//122 19//118
f 102//123 103//120 21//119
f 107//124 105//125 104//126
f 105//125 106//127 102//128
f 106//127 108//129 103//130
f 108//129 107//124 104//126
f 104//126 103//130 108//129
f 103//130 102//128 106//127
f 102//128 104//126 105//125
f 22//36 25//131 109//132
f 24//22 22//36 109//132
f 25//131 24//22 110//133
f 111//134 112//135 25//131
f 110//133 111//134 25//131
f 109//132 110//133 24//22
f 112//135 109//132 25//131
f 114//136 111//134 110//133
f 115//137 114//136 109//138
f 113//139 115//137 109//138
f 109//138 112//140 113//139
f 110//133 109//138 114//136
f 112//140 111//141 113//139
f 67//142 68//25 116//143
f 66//69 67//142 117//144
f 68//25 66//69 118//145
f 117//144 118//145 66//69
f 116//143 117//144 67//142
f 118//145 116//143 68//25
f 121//146 119//147 118//148
f 119//147 120//149 116//150
f 120//149 121//146 117//151
f 117//151 116//150 120//149
f 116//150 118//148 119//147
f 118//148 117//151 121//146
f 40//152 41//153 122//154
f 39//155 40//152 123//156
f 41//153 39//155 124//157
f 124//157 122//154 41//153
f 123//156 124//157 39//155
f 122//154 123//156 40//152
f 128//158 125//159 123//160
f 125//159 126//161 124//162
f 137//163 127//164 122//165
f 127//164 128//158 122//165
f 137//163 122//165 124//162
f 124//162 126//161 137//163
f 123//160 122//165 128//158
f 124//162 123//160 125//159
f 35//41 33//42 130//166
f 36//35 35//41 132//167
f 33//42 36//35 129//168
f 132//167 129//168 36//35
f 131//169 132//167 35//41
f 130//166 131//169 35//41
f 129//168 130//166 33//42
f 134//170 135//171 132//172
f 135//171 136//173 130//174
f 136//173 133//175 131//176
f 133//175 132//172 131//176
f 133//175 134//170 132//172
f 131//176 130//174 136//173
f 130//174 129//177 135//171
f 129//177 132//172 135//171
f 91//178 101//111 100//116
f 36//35 32//19 134//170
f 34//43 36//35 134//170
f 37//11 34//43 133//175
f 38//13 37//11 84//86
f 69//45 38//13 126//161
f 22//36 68//25 119//147
f 23//29 22//36 115//137
f 26//30 23//29 115//137
f 27//34 26//30 108//179
f 30//17 27//34 101//111
f 32//19 30//17 91//98
f 91//98 94//103 32//19
f 101//111 91//98 30//17
f 108//179 101//111 27//34
f 113//139 108//179 26//30
f 115//137 113//139 26//30
f 119//147 115//137 22//36
f 119//147 68//25 69//45
f 126//161 119//147 69//45
f 137//163 126//161 38//13
f 84//86 137//163 38//13
f 133//175 84//86 37//11
f 134//170 133//175 34//43
f 94//103 134//170 32//19
f 139//180 138//181 65//67
f 140//182 139//180 64//15
f 63//68 141//183 140//182
f 142//184 141//183 62//65
f 138//181 142//184 62//65
f 60//66 65//67 138//181
f 62//65 60//66 138//181
f 63//68 62//65 141//183
f 64//15 63//68 140//182
f 65//67 64//15 139//180
f 142//184 138//20 143//185
f 140//182 143//185 139//180
f 143//185 138//20 139//180
f 144//186 146//187 143//185
f 145//188 144//186 140//182
f 146//187 145//188 142//184
f 142//184 143//185 146//187
f 141//183 142//184 145//188
f 140//182 141//183 145//188
f 143//185 140//182 144//186
f 148//189 147//190 46//51
f 149//191 148//189 46//51
f 45//48 150//192 149//191
f 151//193 150//192 43//7
f 147//190 151//193 44//14
f 43//7 44//14 151//193
f 45//48 43//7 150//192
f 46//51 45//48 149//191
f 44//14 46//51 147//190
f 149//191 147//190 148//189
f 152//194 154//195 147//190
f 153//196 152//194 149//191
f 154//195 153//196 150//192
f 151//193 147//190 154//195
f 150//192 151//193 154//195
f 149//191 150//192 153//196
f 147//190 149//191 152//194
f 156//197 155//198 58//28
f 157//199 156//197 56//60
f 158//200 157//199 55//63
f 155//198 158//200 57//62
f 57//62 58//28 155//198
f 55//63 57//62 158//200
f 59//59 55//63 157//199
f 56//60 59//59 157//199
f 58//28 56//60 156//197
f 158//200 160//201 157//199
f 159//20 158//200 155//198
f 160//201 156//20 157//199
f 160//201 159//20 156//20
f 159//20 155//198 156//20
f 73//74 161//202 159//203
f 162//204 73//74 160//205
f 161//202 162//204 158//206
f 158//206 159//203 161//202
f 160//205 158//206 162//204
f 159//203 160//205 73//74
f 144//186 153//207 154//208
f 153//207 144//186 77//78
f 154//208 75//77 144//186
f 77//78 152//209 153//207
f 152//209 77//78 75//77
f 154//208 152//209 75//77
f 72//73 71//72 145//188
f 72//73 145//188 146//210
f 75//77 72//73 144//186
f 145//188 71//72 144//186
f 72//73 146//210 144//186
f 71//72 162//211 161//202
f 73//74 162//211 71//72
f 161//202 73//74 144//186
f 144//186 71//72 161//202
f 106//212 98//112 101//111
f 111//141 144//186 107//213
f 107//213 113//139 111//141
f 107//213 108//179 113//139
f 99//214 73//74 92//215
f 119//147 114//136 115//137
f 121//216 144//186 114//136
f 73//74 135//171 93//217
f 135//171 94//103 93//217
f 144//186 73//74 105//218
f 105//218 73//74 98//112
f 93//217 92//215 73//74
f 94//103 135//171 134//170
f 126//161 125//159 120//149
f 119//147 121//216 114//136
f 100//116 92//215 91//178
f 84//86 163//219 85//88
f 144//186 111//141 114//136
f 108//179 106//212 101//111
f 98//112 106//212 105//218
f 73//74 99//214 98//112
f 92//215 100//116 99//214
f 163//219 84//86 136//220
f 128//221 77//78 121//216
f 125//159 121//216 120//149
f 163//219 86//222 85//88
f 137//163 87//223 127//164
f 105//218 107//213 144//186
f 163//219 136//220 135//171
f 135//171 73//74 163//219
f 77//78 128//221 163//219
f 121//216 125//159 128//221
f 119//147 126//161 120//149
f 137//163 84//86 87//223
f 86//222 128//221 127//164
f 133//175 136//220 84//86
f 87//223 86//222 127//164
f 77//78 144//186 121//216
f 73//74 74//75 164//224
f 86//222 163//219 128//221
f 164//224 163//219 73//74
f 77//78 163//219 165//225
f 165//225 74//75 77//78
f 74//75 165//225 164//224
f 165//226 163//227 166//228
f 164//229 165//226 167//230
f 163//227 164//229 168//231
f 168//231 166//228 163//227
f 167//230 168//231 164//229
f 166//228 167//230 165//226
f 168//231 169//20 166//228
f 167//232 166//228 170//20
f 167//232 170//20 171//233
f 166//228 169//20 170//20
f 168//234 167//232 171//233
f 170//235 169//236 51//53
f 171//233 170//235 49//55
f 168//234 171//233 52//58
f 169//236 168//234 53//12
f 53//12 51//53 169//236
f 52//58 53//12 168//234
f 48//54 52//58 171//233
f 49//55 48//54 171//233
f 51//53 49//55 170//235
